<?xml version="1.0" encoding="UTF-8"?>
<svg width="321.127753px" height="133.803231px" viewBox="0 0 321.127753 133.803231" version="1.1" xmlns="http://www.w3.org/2000/svg" xmlns:xlink="http://www.w3.org/1999/xlink">
    <title>logo/eikon_full</title>
    <defs>
        <polygon id="path-1" points="0 134 321.127753 134 321.127753 0 0 0"></polygon>
        <polygon id="path-3" points="0 134 321.127753 134 321.127753 0 0 0"></polygon>
    </defs>
    <g id="Page-1" stroke="none" stroke-width="1" fill="none" fill-rule="evenodd" opacity="0.496326265">
        <g id="acceuil" transform="translate(-1100, -9459)">
            <g id="footer" transform="translate(19, 9261)">
                <g id="partenariat" transform="translate(0, 133)">
                    <g id="logo/eikon_full" transform="translate(1081, 65)">
                        <polygon id="Path" fill="#FFFFFF" points="1.82602056 76.2796476 1.82602056 88.8728928 9.10649046 88.8728928 9.10649046 87.1019677 3.79371512 87.1019677 3.79371512 83.5601175 8.909721 83.5601175 8.909721 81.7891924 3.79371512 81.7891924 3.79371512 78.2473421 8.909721 78.2473421 8.909721 76.476417 1.82602056 76.476417"></polygon>
                        <g id="Group">
                            <path d="M17.3157122,83.4302496 C17.1189427,82.4464023 16.7254038,81.856094 15.3480176,81.856094 C13.773862,81.856094 13.1835536,83.0367107 13.1835536,84.4140969 C13.1835536,85.7914831 13.773862,86.9720999 15.5447871,86.9720999 C16.7254038,86.9720999 17.1189427,86.3817915 17.3157122,85.5947137 L19.2834068,85.5947137 C19.0866373,87.3656388 17.7092511,88.743025 15.3480176,88.743025 C12.5932452,88.743025 11.215859,86.5785609 11.215859,84.4140969 C11.215859,82.2496329 12.5932452,80.0851689 15.3480176,80.0851689 C18.10279,80.0851689 19.0866373,81.6593245 19.2834068,83.4302496 C19.2834068,83.4302496 17.3157122,83.4302496 17.3157122,83.4302496 Z M27.7444934,84.6108664 C27.7444934,83.2334802 26.7606461,82.0528634 25.1864905,82.0528634 C23.8091043,82.0528634 22.825257,83.2334802 22.825257,84.6108664 C22.825257,85.9882526 23.8091043,87.1688693 25.1864905,87.1688693 C26.7606461,87.1688693 27.7444934,85.9882526 27.7444934,84.6108664 M20.8575624,84.6108664 C20.8575624,82.2496329 22.6284875,80.2819383 25.1864905,80.2819383 C27.9412628,80.2819383 29.5154185,82.2496329 29.5154185,84.6108664 C29.5154185,86.9720999 27.7444934,88.9397944 25.1864905,88.9397944 C22.6284875,88.9397944 20.8575624,86.9720999 20.8575624,84.6108664" id="Shape" fill="#FFFFFF"></path>
                            <g id="Clipped">
                                <mask id="mask-2" fill="white">
                                    <use xlink:href="#path-1"></use>
                                </mask>
                                <g id="a_00000151503309647305106420000010144425527753412756_"></g>
                                <path d="M31.876652,88.743025 L33.8443465,88.743025 L33.8443465,76.1497797 L31.876652,76.1497797 L31.876652,88.743025 Z M37.9765051,83.6270191 L42.1086637,83.6270191 C42.1086637,82.4464023 41.3215859,81.6593245 40.1409692,81.6593245 C38.9603524,81.6593245 37.9765051,82.2496329 37.9765051,83.6270191 Z M37.9765051,85.2011747 C37.9765051,86.3817915 38.5668135,87.3656388 40.1409692,87.3656388 C41.3215859,87.3656388 41.7151248,86.7753304 41.9118943,86.185022 L43.8795888,86.185022 C43.6828194,87.5624082 42.3054332,88.9397944 40.1409692,88.9397944 C37.3861968,88.9397944 36.0088106,86.9720999 36.0088106,84.6108664 C36.0088106,82.0528634 37.5829662,80.2819383 40.1409692,80.2819383 C42.3054332,80.2819383 44.0763583,81.856094 44.0763583,84.020558 C44.0763583,84.2173275 44.0763583,84.6108664 44.0763583,85.2011747 C43.8795888,85.2011747 37.9765051,85.2011747 37.9765051,85.2011747 Z M52.143906,84.6108664 C52.143906,85.9882526 53.1277533,87.1688693 54.701909,87.1688693 C56.0792952,87.1688693 57.0631424,85.9882526 57.0631424,84.6108664 C57.0631424,83.2334802 56.0792952,82.0528634 54.701909,82.0528634 C53.1277533,81.856094 52.143906,83.0367107 52.143906,84.6108664 Z M52.143906,81.4625551 C52.7342144,80.6754772 53.7180617,80.0851689 54.701909,80.0851689 C57.2599119,80.0851689 59.030837,82.0528634 59.030837,84.4140969 C59.030837,86.7753304 57.2599119,88.743025 54.701909,88.743025 C53.7180617,88.743025 52.7342144,88.1527166 52.143906,87.3656388 L52.143906,92.6784141 L50.1762115,92.6784141 L50.1762115,80.0851689 L52.143906,80.0851689 L52.143906,81.4625551 L52.143906,81.4625551 Z M66.5080764,82.2496329 C66.3113069,82.2496329 65.917768,82.2496329 65.7209985,82.2496329 C64.1468429,82.2496329 63.1629956,83.2334802 63.1629956,85.2011747 L63.1629956,88.743025 L61.195301,88.743025 L61.195301,80.4787078 L63.1629956,80.4787078 L63.1629956,81.856094 C63.5565345,81.0690162 64.5403818,80.4787078 65.7209985,80.4787078 C66.1145374,80.4787078 66.3113069,80.4787078 66.5080764,80.6754772 L66.5080764,82.2496329 L66.5080764,82.2496329 Z M74.3788546,84.6108664 C74.3788546,83.2334802 73.3950073,82.0528634 71.8208517,82.0528634 C70.4434655,82.0528634 69.4596182,83.2334802 69.4596182,84.6108664 C69.4596182,85.9882526 70.4434655,87.1688693 71.8208517,87.1688693 C73.3950073,87.1688693 74.3788546,85.9882526 74.3788546,84.6108664 M67.6886931,84.6108664 C67.6886931,82.2496329 69.4596182,80.2819383 72.0176211,80.2819383 C74.7723935,80.2819383 76.3465492,82.2496329 76.3465492,84.6108664 C76.3465492,86.9720999 74.5756241,88.9397944 72.0176211,88.9397944 C69.2628488,88.9397944 67.6886931,86.9720999 67.6886931,84.6108664 M83.4302496,77.9207048 C83.2334802,77.9207048 82.8399413,77.7239354 82.6431718,77.7239354 C82.0528634,77.7239354 81.2657856,77.7239354 81.2657856,79.1013216 L81.2657856,80.2819383 L83.4302496,80.2819383 L83.4302496,81.856094 L81.2657856,81.856094 L81.2657856,88.5462555 L79.298091,88.5462555 L79.298091,81.856094 L77.5271659,81.856094 L77.5271659,80.2819383 L79.298091,80.2819383 L79.298091,79.298091 C79.298091,76.1497797 81.2657856,75.9530103 82.2496329,75.9530103 C82.8399413,75.9530103 83.2334802,76.1497797 83.4302496,76.1497797 C83.4302496,76.3465492 83.4302496,77.9207048 83.4302496,77.9207048 Z M86.5785609,83.6270191 L90.7107195,83.6270191 C90.7107195,82.4464023 89.9236417,81.6593245 88.743025,81.6593245 C87.5624082,81.6593245 86.5785609,82.2496329 86.5785609,83.6270191 Z M86.5785609,85.2011747 C86.5785609,86.3817915 87.1688693,87.3656388 88.743025,87.3656388 C89.9236417,87.3656388 90.3171806,86.7753304 90.5139501,86.185022 L92.4816446,86.185022 C92.2848752,87.5624082 90.907489,88.9397944 88.743025,88.9397944 C85.9882526,88.9397944 84.6108664,86.9720999 84.6108664,84.6108664 C84.6108664,82.0528634 86.185022,80.2819383 88.743025,80.2819383 C90.907489,80.2819383 92.6784141,81.856094 92.6784141,84.020558 C92.6784141,84.2173275 92.6784141,84.6108664 92.6784141,85.2011747 L86.5785609,85.2011747 L86.5785609,85.2011747 Z M100.942731,86.3817915 C100.942731,88.1527166 99.3685756,88.9397944 97.5976505,88.9397944 C95.8267254,88.9397944 94.2525698,87.9559471 94.2525698,85.9882526 L96.2202643,85.9882526 C96.2202643,87.1688693 96.8105727,87.5624082 97.79442,87.5624082 C98.5814978,87.5624082 99.1718062,87.3656388 99.1718062,86.5785609 C99.1718062,85.7914831 98.3847283,85.7914831 96.6138032,85.0044053 C95.4331865,84.6108664 94.6461087,84.2173275 94.6461087,82.6431718 C94.6461087,81.0690162 96.0234949,80.2819383 97.79442,80.2819383 C99.5653451,80.2819383 100.942731,81.4625551 100.942731,83.0367107 L98.9750367,83.0367107 C98.9750367,82.2496329 98.5814978,81.6593245 97.5976505,81.6593245 C97.0073421,81.6593245 96.4170338,82.0528634 96.4170338,82.6431718 C96.4170338,83.4302496 97.2041116,83.4302496 98.7782673,84.020558 C99.958884,84.4140969 100.942731,84.8076358 100.942731,86.3817915 M109.403818,86.3817915 C109.403818,88.1527166 107.829662,88.9397944 106.058737,88.9397944 C104.287812,88.9397944 102.713656,87.9559471 102.713656,85.9882526 L104.681351,85.9882526 C104.681351,87.1688693 105.271659,87.5624082 106.255507,87.5624082 C107.042584,87.5624082 107.632893,87.3656388 107.632893,86.5785609 C107.632893,85.7914831 106.845815,85.7914831 105.07489,85.0044053 C103.894273,84.6108664 103.107195,84.2173275 103.107195,82.6431718 C103.107195,81.0690162 104.484581,80.2819383 106.255507,80.2819383 C108.026432,80.2819383 109.403818,81.4625551 109.403818,83.0367107 L107.436123,83.0367107 C107.436123,82.2496329 107.042584,81.6593245 106.058737,81.6593245 C105.468429,81.6593245 104.87812,82.0528634 104.87812,82.6431718 C104.87812,83.4302496 105.665198,83.4302496 107.239354,84.020558 C108.419971,84.4140969 109.403818,84.8076358 109.403818,86.3817915 M111.765051,88.743025 L113.732746,88.743025 L113.732746,80.4787078 L111.765051,80.4787078 L111.765051,88.743025 L111.765051,88.743025 Z M112.748899,75.9530103 C113.535977,75.9530103 114.126285,76.5433186 114.126285,77.3303965 C114.126285,78.1174743 113.535977,78.7077827 112.748899,78.7077827 L112.748899,78.7077827 C111.961821,78.7077827 111.371512,78.1174743 111.371512,77.3303965 C111.371512,76.5433186 111.961821,75.9530103 112.748899,75.9530103 Z M122.587372,84.6108664 C122.587372,83.2334802 121.603524,82.0528634 120.029369,82.0528634 C118.651982,82.0528634 117.668135,83.2334802 117.668135,84.6108664 C117.668135,85.9882526 118.651982,87.1688693 120.029369,87.1688693 C121.603524,87.1688693 122.587372,85.9882526 122.587372,84.6108664 M115.700441,84.6108664 C115.700441,82.2496329 117.471366,80.2819383 120.029369,80.2819383 C122.784141,80.2819383 124.358297,82.2496329 124.358297,84.6108664 C124.358297,86.9720999 122.587372,88.9397944 120.029369,88.9397944 C117.471366,88.9397944 115.700441,86.9720999 115.700441,84.6108664 M126.71953,80.2819383 L128.687225,80.2819383 L128.687225,81.4625551 C129.277533,80.4787078 130.26138,80.0851689 131.441997,80.0851689 C132.622614,80.0851689 133.409692,80.4787078 134,81.2657856 C134.393539,81.856094 134.590308,82.6431718 134.590308,83.8237885 L134.590308,88.743025 L132.622614,88.743025 L132.622614,84.4140969 C132.622614,83.0367107 132.229075,81.856094 130.851689,81.856094 C129.474302,81.856094 128.883994,83.0367107 128.883994,84.4140969 L128.883994,88.743025 L126.9163,88.743025 L126.9163,80.2819383 L126.71953,80.2819383 Z M137.148311,80.2819383 L139.116006,80.2819383 L139.116006,81.4625551 C139.706314,80.4787078 140.690162,80.0851689 141.870778,80.0851689 C143.051395,80.0851689 143.838473,80.4787078 144.428781,81.2657856 C144.82232,81.856094 145.01909,82.6431718 145.01909,83.8237885 L145.01909,88.743025 L143.051395,88.743025 L143.051395,84.4140969 C143.051395,83.0367107 142.657856,81.856094 141.28047,81.856094 C139.903084,81.856094 139.312775,83.0367107 139.312775,84.4140969 L139.312775,88.743025 L137.345081,88.743025 L137.345081,80.2819383 L137.148311,80.2819383 Z M148.954479,83.6270191 L153.086637,83.6270191 C153.086637,82.4464023 152.299559,81.6593245 151.118943,81.6593245 C149.938326,81.6593245 148.954479,82.2496329 148.954479,83.6270191 Z M148.954479,85.2011747 C148.954479,86.3817915 149.544787,87.3656388 151.118943,87.3656388 C152.299559,87.3656388 152.693098,86.7753304 152.889868,86.185022 L154.857562,86.185022 C154.660793,87.5624082 153.283407,88.9397944 151.118943,88.9397944 C148.36417,88.9397944 146.986784,86.9720999 146.986784,84.6108664 C146.986784,82.0528634 148.56094,80.2819383 151.118943,80.2819383 C153.283407,80.2819383 155.054332,81.856094 155.054332,84.020558 C155.054332,84.2173275 155.054332,84.6108664 155.054332,85.2011747 L148.954479,85.2011747 L148.954479,85.2011747 Z M157.218796,88.743025 L159.18649,88.743025 L159.18649,76.1497797 L157.218796,76.1497797 L157.218796,88.743025 Z M161.941263,88.743025 L163.908957,88.743025 L163.908957,76.1497797 L161.941263,76.1497797 L161.941263,88.743025 Z M168.041116,83.6270191 L172.173275,83.6270191 C172.173275,82.4464023 171.386197,81.6593245 170.20558,81.6593245 C169.024963,81.6593245 168.041116,82.2496329 168.041116,83.6270191 Z M168.041116,85.2011747 C168.041116,86.3817915 168.631424,87.3656388 170.20558,87.3656388 C171.386197,87.3656388 171.779736,86.7753304 171.976505,86.185022 L173.9442,86.185022 C173.74743,87.5624082 172.370044,88.9397944 170.20558,88.9397944 C167.450808,88.9397944 166.073421,86.9720999 166.073421,84.6108664 C166.073421,82.0528634 167.647577,80.2819383 170.20558,80.2819383 C172.370044,80.2819383 174.140969,81.856094 174.140969,84.020558 C174.140969,84.2173275 174.140969,84.6108664 174.140969,85.2011747 L168.041116,85.2011747 L168.041116,85.2011747 Z M181.618209,83.6270191 L185.750367,83.6270191 C185.750367,82.4464023 184.963289,81.6593245 183.782673,81.6593245 C182.602056,81.6593245 181.618209,82.2496329 181.618209,83.6270191 Z M181.618209,85.2011747 C181.618209,86.3817915 182.208517,87.3656388 183.782673,87.3656388 C184.963289,87.3656388 185.356828,86.7753304 185.553598,86.185022 L187.521292,86.185022 C187.324523,87.5624082 185.947137,88.9397944 183.782673,88.9397944 C181.0279,88.9397944 179.650514,86.9720999 179.650514,84.6108664 C179.650514,82.0528634 181.22467,80.2819383 183.782673,80.2819383 C185.947137,80.2819383 187.718062,81.856094 187.718062,84.020558 C187.718062,84.2173275 187.718062,84.6108664 187.718062,85.2011747 L181.618209,85.2011747 L181.618209,85.2011747 Z M190.079295,80.2819383 L192.04699,80.2819383 L192.04699,81.4625551 C192.637298,80.4787078 193.621145,80.0851689 194.801762,80.0851689 C195.982379,80.0851689 196.769457,80.4787078 197.359765,81.2657856 C197.753304,81.856094 197.950073,82.6431718 197.950073,83.8237885 L197.950073,88.743025 L195.982379,88.743025 L195.982379,84.4140969 C195.982379,83.0367107 195.58884,81.856094 194.211454,81.856094 C192.834068,81.856094 192.243759,83.0367107 192.243759,84.4140969 L192.243759,88.743025 L190.276065,88.743025 L190.276065,80.2819383 L190.079295,80.2819383 Z M210.543319,84.6108664 C210.543319,83.2334802 209.559471,82.0528634 207.985316,82.0528634 C206.60793,82.0528634 205.624082,83.2334802 205.624082,84.6108664 C205.624082,85.9882526 206.60793,87.1688693 207.985316,87.1688693 C209.559471,87.1688693 210.543319,85.9882526 210.543319,84.6108664 Z M212.511013,80.4787078 L212.511013,88.743025 L210.543319,88.743025 L210.543319,87.5624082 C209.95301,88.349486 208.969163,88.9397944 207.985316,88.9397944 C205.427313,88.9397944 203.656388,86.9720999 203.656388,84.6108664 C203.656388,82.2496329 205.427313,80.2819383 207.985316,80.2819383 C208.969163,80.2819383 209.95301,80.8722467 210.543319,81.6593245 L210.543319,80.4787078 C210.543319,80.4787078 212.511013,80.4787078 212.511013,80.4787078 Z M220.578561,82.2496329 C220.381791,82.2496329 219.988253,82.2496329 219.791483,82.2496329 C218.217327,82.2496329 217.23348,83.2334802 217.23348,85.2011747 L217.23348,88.743025 L215.265786,88.743025 L215.265786,80.4787078 L217.23348,80.4787078 L217.23348,81.856094 C217.627019,81.0690162 218.610866,80.4787078 219.791483,80.4787078 C220.185022,80.4787078 220.381791,80.4787078 220.578561,80.6754772 C220.578561,80.4787078 220.578561,82.2496329 220.578561,82.2496329 Z M227.268722,88.743025 C226.875184,88.743025 226.284875,88.9397944 225.891336,88.9397944 C224.907489,88.9397944 223.136564,88.743025 223.136564,85.9882526 L223.136564,82.0528634 L221.759178,82.0528634 L221.759178,80.4787078 L223.136564,80.4787078 L223.136564,77.9207048 L225.104258,77.9207048 L225.104258,80.4787078 L227.071953,80.4787078 L227.071953,82.0528634 L225.104258,82.0528634 L225.104258,85.3979442 C225.104258,86.7753304 225.497797,86.9720999 226.284875,86.9720999 C226.678414,86.9720999 227.071953,86.9720999 227.268722,86.9720999 L227.268722,88.743025 L227.268722,88.743025 Z M235.33627,86.3817915 C235.33627,88.1527166 233.762115,88.9397944 231.991189,88.9397944 C230.220264,88.9397944 228.646109,87.9559471 228.646109,85.9882526 L230.613803,85.9882526 C230.613803,87.1688693 231.204112,87.5624082 232.187959,87.5624082 C232.975037,87.5624082 233.565345,87.3656388 233.565345,86.5785609 C233.565345,85.7914831 232.778267,85.7914831 231.007342,85.0044053 C229.826725,84.6108664 229.039648,84.2173275 229.039648,82.6431718 C229.039648,81.0690162 230.417034,80.2819383 232.187959,80.2819383 C233.958884,80.2819383 235.33627,81.4625551 235.33627,83.0367107 L233.368576,83.0367107 C233.368576,82.2496329 232.975037,81.6593245 231.991189,81.6593245 C231.400881,81.6593245 230.810573,82.0528634 230.810573,82.6431718 C230.810573,83.4302496 231.597651,83.4302496 233.171806,84.020558 C234.155653,84.4140969 235.33627,84.8076358 235.33627,86.3817915 M247.732746,84.6108664 C247.732746,83.2334802 246.748899,82.0528634 245.174743,82.0528634 C243.797357,82.0528634 242.81351,83.2334802 242.81351,84.6108664 C242.81351,85.9882526 243.797357,87.1688693 245.174743,87.1688693 C246.748899,87.1688693 247.732746,85.9882526 247.732746,84.6108664 Z M249.700441,80.4787078 L249.700441,88.743025 L247.732746,88.743025 L247.732746,87.5624082 C247.142438,88.349486 246.15859,88.9397944 245.174743,88.9397944 C242.61674,88.9397944 240.845815,86.9720999 240.845815,84.6108664 C240.845815,82.2496329 242.61674,80.2819383 245.174743,80.2819383 C246.15859,80.2819383 247.142438,80.8722467 247.732746,81.6593245 L247.732746,80.4787078 C247.732746,80.4787078 249.700441,80.4787078 249.700441,80.4787078 Z M254.422907,84.6108664 C254.422907,85.9882526 255.406755,87.1688693 256.98091,87.1688693 C258.358297,87.1688693 259.342144,85.9882526 259.342144,84.6108664 C259.342144,83.2334802 258.358297,82.0528634 256.98091,82.0528634 C255.406755,81.856094 254.422907,83.0367107 254.422907,84.6108664 Z M254.422907,81.4625551 C255.013216,80.6754772 255.997063,80.0851689 256.98091,80.0851689 C259.538913,80.0851689 261.309838,82.0528634 261.309838,84.4140969 C261.309838,86.7753304 259.538913,88.743025 256.98091,88.743025 C255.997063,88.743025 255.013216,88.1527166 254.422907,87.3656388 L254.422907,92.6784141 L252.455213,92.6784141 L252.455213,80.0851689 L254.422907,80.0851689 L254.422907,81.4625551 L254.422907,81.4625551 Z M265.441997,84.6108664 C265.441997,85.9882526 266.425844,87.1688693 268,87.1688693 C269.377386,87.1688693 270.361233,85.9882526 270.361233,84.6108664 C270.361233,83.2334802 269.377386,82.0528634 268,82.0528634 C266.425844,81.856094 265.441997,83.0367107 265.441997,84.6108664 Z M265.441997,81.4625551 C266.032305,80.6754772 267.016153,80.0851689 268,80.0851689 C270.558003,80.0851689 272.328928,82.0528634 272.328928,84.4140969 C272.328928,86.7753304 270.558003,88.743025 268,88.743025 C267.016153,88.743025 266.032305,88.1527166 265.441997,87.3656388 L265.441997,92.6784141 L263.474302,92.6784141 L263.474302,80.0851689 L265.441997,80.0851689 L265.441997,81.4625551 L265.441997,81.4625551 Z M274.493392,88.743025 L276.461087,88.743025 L276.461087,76.1497797 L274.493392,76.1497797 L274.493392,88.743025 Z M279.215859,88.743025 L281.183554,88.743025 L281.183554,80.4787078 L279.215859,80.4787078 L279.215859,88.743025 L279.215859,88.743025 Z M280.199706,75.9530103 C280.986784,75.9530103 281.577093,76.5433186 281.577093,77.3303965 C281.577093,78.1174743 280.986784,78.7077827 280.199706,78.7077827 C279.412628,78.7077827 278.82232,78.1174743 278.82232,77.3303965 C278.625551,76.5433186 279.215859,75.9530103 280.199706,75.9530103 L280.199706,75.9530103 Z M285.118943,84.6108664 C285.118943,85.9882526 286.10279,87.1688693 287.480176,87.1688693 C289.054332,87.1688693 290.038179,85.9882526 290.038179,84.6108664 C290.038179,83.2334802 289.054332,82.0528634 287.480176,82.0528634 C286.10279,81.856094 285.118943,83.0367107 285.118943,84.6108664 Z M290.038179,80.4787078 L292.005874,80.4787078 L292.005874,93.071953 L290.038179,93.071953 L290.038179,87.7591777 C289.447871,88.5462555 288.464023,89.1365639 287.480176,89.1365639 C284.922173,89.1365639 283.151248,87.1688693 283.151248,84.8076358 C283.151248,82.4464023 284.922173,80.4787078 287.480176,80.4787078 C288.464023,80.4787078 289.447871,81.0690162 290.038179,81.856094 C290.038179,81.4625551 290.038179,80.4787078 290.038179,80.4787078 Z M302.434655,80.2819383 L302.434655,88.5462555 L300.46696,88.5462555 L300.46696,87.3656388 C299.876652,88.349486 298.892805,88.743025 297.712188,88.743025 C296.531571,88.743025 295.744493,88.349486 295.154185,87.5624082 C294.760646,86.9720999 294.563877,86.185022 294.563877,85.0044053 L294.563877,80.0851689 L296.531571,80.0851689 L296.531571,84.6108664 C296.531571,85.9882526 296.92511,87.1688693 298.302496,87.1688693 C299.679883,87.1688693 300.270191,85.9882526 300.270191,84.6108664 L300.270191,80.2819383 L302.434655,80.2819383 L302.434655,80.2819383 Z M306.566814,83.6270191 L310.698972,83.6270191 C310.698972,82.4464023 309.911894,81.6593245 308.731278,81.6593245 C307.550661,81.6593245 306.566814,82.2496329 306.566814,83.6270191 L306.566814,83.6270191 Z M306.960352,79.8883994 L305.976505,78.3142438 L310.502203,75.9530103 L311.48605,77.5271659 L306.960352,79.8883994 Z M306.566814,85.2011747 C306.566814,86.3817915 307.157122,87.3656388 308.731278,87.3656388 C309.911894,87.3656388 310.305433,86.7753304 310.502203,86.185022 L312.469897,86.185022 C312.273128,87.5624082 310.895742,88.9397944 308.731278,88.9397944 C305.976505,88.9397944 304.599119,86.9720999 304.599119,84.6108664 C304.599119,82.0528634 306.173275,80.2819383 308.731278,80.2819383 C310.895742,80.2819383 312.666667,81.856094 312.666667,84.020558 C312.666667,84.2173275 312.666667,84.6108664 312.666667,85.2011747 L306.566814,85.2011747 L306.566814,85.2011747 Z M321.127753,86.3817915 C321.127753,88.1527166 319.553598,88.9397944 317.782673,88.9397944 C316.011747,88.9397944 314.437592,87.9559471 314.437592,85.9882526 L316.405286,85.9882526 C316.405286,87.1688693 316.995595,87.5624082 317.979442,87.5624082 C318.76652,87.5624082 319.356828,87.3656388 319.356828,86.5785609 C319.356828,85.7914831 318.56975,85.7914831 316.798825,85.0044053 C315.618209,84.6108664 314.831131,84.2173275 314.831131,82.6431718 C314.831131,81.0690162 316.208517,80.2819383 317.979442,80.2819383 C319.750367,80.2819383 321.127753,81.4625551 321.127753,83.0367107 L319.160059,83.0367107 C319.160059,82.2496329 318.76652,81.6593245 317.782673,81.6593245 C317.192364,81.6593245 316.602056,82.0528634 316.602056,82.6431718 C316.602056,83.4302496 317.389134,83.4302496 318.963289,84.020558 C319.947137,84.4140969 321.127753,84.8076358 321.127753,86.3817915 M3.93538913,103.894273 L3.93538913,107.436123 L6.29662261,107.436123 C8.06754772,107.436123 8.26431718,106.452276 8.26431718,105.665198 C8.26431718,105.07489 7.87077827,103.894273 6.29662261,103.894273 L3.93538913,103.894273 L3.93538913,103.894273 Z M6.09985316,101.926579 C7.87077827,101.926579 8.06754772,100.745962 8.06754772,100.155653 C8.06754772,99.5653451 7.87077827,98.3847283 6.09985316,98.3847283 L3.93538913,98.3847283 L3.93538913,101.729809 C3.93538913,101.926579 6.09985316,101.926579 6.09985316,101.926579 Z M1.77092511,96.8105727 L6.09985316,96.8105727 C9.44493392,96.8105727 10.0352423,98.9750367 10.0352423,100.155653 C10.0352423,101.729809 8.85462555,102.713656 7.87077827,102.910426 C8.65785609,102.910426 10.2320117,103.894273 10.2320117,105.665198 C10.2320117,107.042584 9.64170338,109.207048 6.09985316,109.207048 L1.77092511,109.207048 L1.77092511,96.8105727 Z M14.1674009,104.287812 L18.2995595,104.287812 C18.2995595,103.107195 17.5124816,102.320117 16.3318649,102.320117 C14.9544787,102.123348 14.1674009,102.910426 14.1674009,104.287812 L14.1674009,104.287812 Z M14.1674009,105.665198 C14.1674009,106.845815 14.7577093,107.829662 16.3318649,107.829662 C17.5124816,107.829662 17.9060206,107.239354 18.10279,106.649046 L20.0704846,106.649046 C19.8737151,108.026432 18.4963289,109.403818 16.3318649,109.403818 C13.5770925,109.403818 12.1997063,107.436123 12.1997063,105.07489 C12.1997063,102.516887 13.773862,100.745962 16.3318649,100.745962 C18.4963289,100.745962 20.267254,102.320117 20.267254,104.484581 C20.267254,104.681351 20.267254,105.07489 20.267254,105.665198 L14.1674009,105.665198 L14.1674009,105.665198 Z M27.7444934,102.713656 C27.5477239,102.713656 27.154185,102.713656 26.9574156,102.713656 C25.3832599,102.713656 24.3994126,103.697504 24.3994126,105.665198 L24.3994126,109.207048 L22.4317181,109.207048 L22.4317181,100.942731 L24.3994126,100.942731 L24.3994126,102.320117 C24.7929515,101.53304 25.7767988,100.942731 26.9574156,100.942731 C27.3509545,100.942731 27.5477239,100.942731 27.7444934,101.139501 C27.7444934,100.942731 27.7444934,102.713656 27.7444934,102.713656 Z M36.9926579,100.942731 L36.9926579,109.207048 L35.0249633,109.207048 L35.0249633,108.026432 C34.4346549,109.010279 33.4508076,109.403818 32.2701909,109.403818 C31.0895742,109.403818 30.3024963,109.010279 29.712188,108.223201 C29.318649,107.632893 29.1218796,106.845815 29.1218796,105.665198 L29.1218796,100.745962 L31.0895742,100.745962 L31.0895742,105.07489 C31.0895742,106.452276 31.4831131,107.632893 32.8604993,107.632893 C34.2378855,107.632893 34.8281938,106.452276 34.8281938,105.07489 L34.8281938,100.745962 C35.0249633,100.942731 36.9926579,100.942731 36.9926579,100.942731 Z M44.6666667,98.5814978 C44.4698972,98.5814978 44.0763583,98.3847283 43.8795888,98.3847283 C43.2892805,98.3847283 42.5022026,98.3847283 42.5022026,99.7621145 L42.5022026,100.942731 L44.6666667,100.942731 L44.6666667,102.516887 L42.5022026,102.516887 L42.5022026,109.207048 L40.5345081,109.207048 L40.5345081,102.516887 L38.763583,102.516887 L38.763583,100.942731 L40.5345081,100.942731 L40.5345081,99.958884 C40.5345081,96.8105727 42.5022026,96.6138032 43.4860499,96.6138032 C44.0763583,96.6138032 44.4698972,96.8105727 44.6666667,96.8105727 L44.6666667,98.5814978 L44.6666667,98.5814978 Z M52.7342144,106.845815 C52.7342144,108.61674 51.1600587,109.403818 49.3891336,109.403818 C47.6182085,109.403818 46.0440529,108.419971 46.0440529,106.452276 L48.0117474,106.452276 C48.0117474,107.632893 48.6020558,108.026432 49.5859031,108.026432 C50.3729809,108.026432 50.9632893,107.829662 50.9632893,107.042584 C50.9632893,106.255507 50.1762115,106.255507 48.4052863,105.468429 C47.2246696,105.07489 46.4375918,104.681351 46.4375918,103.107195 C46.4375918,101.53304 47.814978,100.745962 49.5859031,100.745962 C51.3568282,100.745962 52.7342144,101.926579 52.7342144,103.500734 L50.7665198,103.500734 C50.7665198,102.713656 50.3729809,102.123348 49.3891336,102.123348 C48.7988253,102.123348 48.2085169,102.516887 48.2085169,103.107195 C48.2085169,103.894273 48.9955947,103.894273 50.5697504,104.484581 C51.5535977,105.07489 52.7342144,105.468429 52.7342144,106.845815 M59.8179148,98.5814978 C59.6211454,98.3847283 59.2276065,98.3847283 59.030837,98.3847283 C58.4405286,98.3847283 57.6534508,98.3847283 57.6534508,99.7621145 L57.6534508,100.942731 L59.8179148,100.942731 L59.8179148,102.516887 L57.6534508,102.516887 L57.6534508,109.207048 L55.6857562,109.207048 L55.6857562,102.516887 L53.9148311,102.516887 L53.9148311,100.942731 L55.6857562,100.942731 L55.6857562,99.958884 C55.6857562,96.8105727 57.6534508,96.6138032 58.6372981,96.6138032 C59.2276065,96.6138032 59.6211454,96.8105727 59.8179148,96.8105727 L59.8179148,98.5814978 L59.8179148,98.5814978 Z M67.8854626,105.07489 C67.8854626,103.697504 66.9016153,102.516887 65.3274596,102.516887 C63.9500734,102.516887 62.9662261,103.697504 62.9662261,105.07489 C62.9662261,106.452276 63.9500734,107.632893 65.3274596,107.632893 C66.9016153,107.829662 67.8854626,106.452276 67.8854626,105.07489 L67.8854626,105.07489 Z M69.8531571,100.942731 L69.8531571,109.207048 L67.8854626,109.207048 L67.8854626,108.223201 C67.2951542,109.010279 66.3113069,109.600587 65.3274596,109.600587 C62.7694567,109.600587 60.9985316,107.632893 60.9985316,105.271659 C60.9985316,102.910426 62.7694567,100.942731 65.3274596,100.942731 C66.3113069,100.942731 67.2951542,101.53304 67.8854626,102.320117 L67.8854626,101.139501 L69.8531571,100.942731 L69.8531571,100.942731 Z M78.1174743,103.894273 C77.9207048,102.910426 77.5271659,102.320117 76.1497797,102.320117 C74.5756241,102.320117 73.9853157,103.500734 73.9853157,104.87812 C73.9853157,106.255507 74.5756241,107.436123 76.3465492,107.436123 C77.5271659,107.436123 77.9207048,106.845815 78.1174743,106.058737 L80.0851689,106.058737 C79.8883994,107.829662 78.5110132,109.207048 76.1497797,109.207048 C73.3950073,109.207048 72.0176211,107.042584 72.0176211,104.87812 C72.0176211,102.713656 73.3950073,100.549192 76.1497797,100.549192 C78.9045521,100.549192 79.8883994,102.123348 80.0851689,103.894273 L78.1174743,103.894273 L78.1174743,103.894273 Z M82.4464023,96.8105727 L84.4140969,96.8105727 L84.4140969,102.123348 C85.0044053,101.139501 85.9882526,100.745962 87.1688693,100.745962 C88.349486,100.745962 89.1365639,101.139501 89.7268722,101.926579 C90.1204112,102.516887 90.3171806,103.303965 90.3171806,104.484581 L90.3171806,109.403818 L88.349486,109.403818 L88.349486,105.07489 C88.349486,103.697504 87.9559471,102.516887 86.5785609,102.516887 C85.2011747,102.516887 84.6108664,103.697504 84.6108664,105.07489 L84.6108664,109.403818 L82.6431718,109.403818 L82.6431718,96.8105727 L82.4464023,96.8105727 Z M98.7782673,106.845815 C98.7782673,108.61674 97.2041116,109.403818 95.4331865,109.403818 C93.6622614,109.403818 92.0881057,108.419971 92.0881057,106.452276 L94.0558003,106.452276 C94.0558003,107.632893 94.6461087,108.026432 95.6299559,108.026432 C96.4170338,108.026432 97.0073421,107.829662 97.0073421,107.042584 C97.0073421,106.255507 96.2202643,106.255507 94.4493392,105.468429 C93.2687225,105.07489 92.4816446,104.681351 92.4816446,103.107195 C92.4816446,101.53304 93.8590308,100.745962 95.6299559,100.745962 C97.4008811,100.745962 98.7782673,101.926579 98.7782673,103.500734 L96.8105727,103.500734 C96.8105727,102.713656 96.4170338,102.123348 95.4331865,102.123348 C94.8428781,102.123348 94.2525698,102.516887 94.2525698,103.107195 C94.2525698,103.894273 95.0396476,103.894273 96.6138032,104.484581 C97.79442,105.07489 98.7782673,105.468429 98.7782673,106.845815 M106.649046,103.894273 C106.452276,102.910426 106.058737,102.320117 104.681351,102.320117 C103.107195,102.320117 102.516887,103.500734 102.516887,104.87812 C102.516887,106.255507 103.107195,107.436123 104.87812,107.436123 C106.058737,107.436123 106.452276,106.845815 106.649046,106.058737 L108.61674,106.058737 C108.419971,107.829662 107.042584,109.207048 104.681351,109.207048 C101.926579,109.207048 100.549192,107.042584 100.549192,104.87812 C100.549192,102.713656 101.926579,100.549192 104.681351,100.549192 C107.436123,100.549192 108.419971,102.123348 108.61674,103.894273 C108.61674,103.894273 106.649046,103.894273 106.649046,103.894273 Z M110.977974,96.8105727 L112.945668,96.8105727 L112.945668,102.123348 C113.535977,101.139501 114.519824,100.745962 115.700441,100.745962 C116.881057,100.745962 117.668135,101.139501 118.258443,101.926579 C118.651982,102.516887 118.848752,103.303965 118.848752,104.484581 L118.848752,109.403818 L116.881057,109.403818 L116.881057,105.07489 C116.881057,103.697504 116.487518,102.516887 115.110132,102.516887 C113.732746,102.516887 113.142438,103.697504 113.142438,105.07489 L113.142438,109.403818 L111.174743,109.403818 L111.174743,96.8105727 L110.977974,96.8105727 Z M128.883994,100.942731 L128.883994,109.207048 L126.9163,109.207048 L126.9163,108.026432 C126.325991,109.010279 125.342144,109.403818 124.161527,109.403818 C122.98091,109.403818 122.193833,109.010279 121.603524,108.223201 C121.209985,107.632893 121.013216,106.845815 121.013216,105.665198 L121.013216,100.745962 L122.98091,100.745962 L122.98091,105.07489 C122.98091,106.452276 123.374449,107.632893 124.751836,107.632893 C126.129222,107.632893 126.71953,106.452276 126.71953,105.07489 L126.71953,100.745962 L128.883994,100.745962 L128.883994,100.942731 Z M131.638767,109.207048 L133.606461,109.207048 L133.606461,96.6138032 L131.638767,96.6138032 L131.638767,109.207048 Z M137.73862,104.287812 L141.870778,104.287812 C141.870778,103.107195 141.0837,102.320117 139.903084,102.320117 C138.525698,102.123348 137.73862,102.910426 137.73862,104.287812 L137.73862,104.287812 Z M137.73862,105.665198 C137.73862,106.845815 138.328928,107.829662 139.903084,107.829662 C141.0837,107.829662 141.477239,107.239354 141.674009,106.649046 L143.641703,106.649046 C143.444934,108.026432 142.067548,109.403818 139.903084,109.403818 C137.148311,109.403818 135.770925,107.436123 135.770925,105.07489 C135.770925,102.516887 137.345081,100.745962 139.903084,100.745962 C142.067548,100.745962 143.838473,102.320117 143.838473,104.484581 C143.838473,104.681351 143.838473,105.07489 143.838473,105.665198 L137.73862,105.665198 L137.73862,105.665198 Z M154.857562,98.5814978 C154.660793,98.5814978 154.267254,98.3847283 154.070485,98.3847283 C153.480176,98.3847283 152.693098,98.3847283 152.693098,99.7621145 L152.693098,100.942731 L154.857562,100.942731 L154.857562,102.516887 L152.693098,102.516887 L152.693098,109.207048 L150.725404,109.207048 L150.725404,102.516887 L148.954479,102.516887 L148.954479,100.942731 L150.725404,100.942731 L150.725404,99.958884 C150.725404,96.8105727 152.693098,96.6138032 153.676946,96.6138032 C154.267254,96.6138032 154.660793,96.8105727 154.857562,96.8105727 L154.857562,98.5814978 L154.857562,98.5814978 Z M158.202643,96.8105727 C158.989721,96.8105727 159.580029,97.4008811 159.580029,98.1879589 C159.580029,98.9750367 158.989721,99.5653451 158.202643,99.5653451 C157.415565,99.5653451 156.825257,98.9750367 156.825257,98.1879589 C156.825257,97.4008811 157.415565,96.8105727 158.202643,96.8105727 Z M164.105727,109.207048 L162.138032,109.207048 L162.138032,108.026432 C161.547724,109.010279 160.563877,109.403818 159.38326,109.403818 C158.202643,109.403818 157.415565,109.010279 156.825257,108.223201 C156.431718,107.632893 156.234949,106.845815 156.234949,105.665198 L156.234949,100.745962 L158.202643,100.745962 L158.202643,105.07489 C158.202643,106.452276 158.596182,107.632893 159.973568,107.632893 C161.350954,107.632893 161.941263,106.452276 161.941263,105.07489 L161.941263,100.745962 L163.908957,100.745962 L163.908957,109.207048 L164.105727,109.207048 Z M172.173275,102.713656 C171.976505,102.713656 171.582966,102.713656 171.386197,102.713656 C169.812041,102.713656 168.828194,103.697504 168.828194,105.665198 L168.828194,109.207048 L166.860499,109.207048 L166.860499,100.942731 L168.828194,100.942731 L168.828194,102.320117 C169.221733,101.53304 170.20558,100.942731 171.386197,100.942731 C171.779736,100.942731 171.976505,100.942731 172.173275,101.139501 C172.173275,100.942731 172.173275,102.713656 172.173275,102.713656 Z M185.160059,102.910426 L191.063142,102.910426 L191.063142,104.681351 L189.685756,104.681351 C189.095448,107.436123 187.127753,109.403818 183.585903,109.403818 C179.453744,109.403818 177.092511,106.255507 177.092511,102.910426 C177.092511,99.5653451 179.650514,96.4170338 183.585903,96.4170338 C186.537445,96.4170338 188.701909,98.1879589 188.898678,100.549192 L186.930984,100.549192 C186.734214,99.3685756 185.356828,98.3847283 183.585903,98.3847283 C180.831131,98.3847283 179.256975,100.745962 179.256975,103.107195 C179.256975,105.468429 180.831131,107.829662 183.782673,107.829662 C185.947137,107.829662 187.127753,106.452276 187.521292,104.87812 L185.160059,104.87812 C185.160059,104.87812 185.160059,102.910426 185.160059,102.910426 Z M194.408223,104.287812 L198.540382,104.287812 C198.540382,103.107195 197.753304,102.320117 196.572687,102.320117 C195.39207,102.123348 194.408223,102.910426 194.408223,104.287812 Z M194.408223,105.665198 C194.408223,106.845815 194.998532,107.829662 196.572687,107.829662 C197.753304,107.829662 198.146843,107.239354 198.343612,106.649046 L200.311307,106.649046 C200.114537,108.026432 198.737151,109.403818 196.572687,109.403818 C193.817915,109.403818 192.440529,107.436123 192.440529,105.07489 C192.440529,102.516887 194.014684,100.745962 196.572687,100.745962 C198.737151,100.745962 200.508076,102.320117 200.508076,104.484581 C200.508076,104.681351 200.508076,105.07489 200.508076,105.665198 L194.408223,105.665198 L194.408223,105.665198 Z M208.969163,106.845815 C208.969163,108.61674 207.395007,109.403818 205.624082,109.403818 C203.853157,109.403818 202.279001,108.419971 202.279001,106.452276 L204.246696,106.452276 C204.246696,107.632893 204.837004,108.026432 205.820852,108.026432 C206.60793,108.026432 207.198238,107.829662 207.198238,107.042584 C207.198238,106.255507 206.41116,106.255507 204.640235,105.468429 C203.459618,105.07489 202.67254,104.681351 202.67254,103.107195 C202.67254,101.53304 204.049927,100.745962 205.820852,100.745962 C207.591777,100.745962 208.969163,101.926579 208.969163,103.500734 L207.001468,103.500734 C207.001468,102.713656 206.60793,102.123348 205.624082,102.123348 C205.033774,102.123348 204.443465,102.516887 204.443465,103.107195 C204.443465,103.894273 205.230543,103.894273 206.804699,104.484581 C207.788546,105.07489 208.969163,105.468429 208.969163,106.845815 M215.856094,109.207048 C215.462555,109.207048 214.872247,109.403818 214.478708,109.403818 C213.49486,109.403818 211.723935,109.207048 211.723935,106.452276 L211.723935,102.516887 L210.346549,102.516887 L210.346549,100.942731 L211.723935,100.942731 L211.723935,98.3847283 L213.69163,98.3847283 L213.69163,100.942731 L215.659325,100.942731 L215.659325,102.516887 L213.69163,102.516887 L213.69163,105.861968 C213.69163,107.239354 214.085169,107.436123 214.872247,107.436123 C215.265786,107.436123 215.659325,107.436123 215.856094,107.436123 C215.856094,107.632893 215.856094,109.207048 215.856094,109.207048 Z M223.923642,105.07489 C223.923642,103.697504 222.939794,102.516887 221.365639,102.516887 C219.988253,102.516887 219.004405,103.697504 219.004405,105.07489 C219.004405,106.452276 219.988253,107.632893 221.365639,107.632893 C222.939794,107.829662 223.923642,106.452276 223.923642,105.07489 Z M225.891336,100.942731 L225.891336,109.207048 L223.923642,109.207048 L223.923642,108.223201 C223.333333,109.010279 222.349486,109.600587 221.365639,109.600587 C218.807636,109.600587 217.036711,107.632893 217.036711,105.271659 C217.036711,102.910426 218.807636,100.942731 221.365639,100.942731 C222.349486,100.942731 223.333333,101.53304 223.923642,102.320117 L223.923642,101.139501 C223.923642,100.942731 225.891336,100.942731 225.891336,100.942731 Z M228.646109,109.207048 L230.613803,109.207048 L230.613803,96.6138032 L228.646109,96.6138032 L228.646109,109.207048 Z M238.091043,109.207048 C237.697504,109.207048 237.107195,109.403818 236.713656,109.403818 C235.729809,109.403818 233.958884,109.207048 233.958884,106.452276 L233.958884,102.516887 L232.581498,102.516887 L232.581498,100.942731 L233.958884,100.942731 L233.958884,98.3847283 L235.926579,98.3847283 L235.926579,100.942731 L237.894273,100.942731 L237.894273,102.516887 L235.926579,102.516887 L235.926579,105.861968 C235.926579,107.239354 236.320117,107.436123 237.107195,107.436123 C237.500734,107.436123 237.894273,107.436123 238.091043,107.436123 L238.091043,109.207048 L238.091043,109.207048 Z M247.339207,100.942731 L247.339207,109.207048 L245.371512,109.207048 L245.371512,108.026432 C244.781204,109.010279 243.797357,109.403818 242.61674,109.403818 C241.436123,109.403818 240.649046,109.010279 240.058737,108.223201 C239.665198,107.632893 239.468429,106.845815 239.468429,105.665198 L239.468429,100.745962 L241.436123,100.745962 L241.436123,105.07489 C241.436123,106.452276 241.829662,107.632893 243.207048,107.632893 C244.584435,107.632893 245.174743,106.452276 245.174743,105.07489 L245.174743,100.745962 C245.371512,100.942731 247.339207,100.942731 247.339207,100.942731 Z M250.093979,100.942731 L252.061674,100.942731 L252.061674,102.123348 C252.651982,101.139501 253.63583,100.745962 254.816446,100.745962 C255.997063,100.745962 256.784141,101.139501 257.374449,101.926579 C257.767988,102.516887 257.964758,103.303965 257.964758,104.484581 L257.964758,109.403818 L255.997063,109.403818 L255.997063,105.07489 C255.997063,103.697504 255.603524,102.516887 254.226138,102.516887 C252.848752,102.516887 252.258443,103.697504 252.258443,105.07489 L252.258443,109.403818 L250.290749,109.403818 C250.093979,109.207048 250.093979,100.942731 250.093979,100.942731 Z M261.900147,105.07489 C261.900147,106.452276 262.883994,107.632893 264.26138,107.632893 C265.835536,107.632893 266.819383,106.452276 266.819383,105.07489 C266.819383,103.697504 265.835536,102.516887 264.26138,102.516887 C262.883994,102.516887 261.900147,103.697504 261.900147,105.07489 Z M268.787078,109.600587 C268.787078,110.977974 268.393539,111.961821 267.606461,112.552129 C266.819383,113.142438 265.638767,113.535977 264.26138,113.535977 C262.883994,113.535977 261.900147,113.142438 261.113069,112.552129 C260.522761,111.961821 260.129222,111.174743 259.932452,110.190896 L261.900147,110.190896 C262.096916,111.174743 262.687225,111.961821 264.064611,111.961821 C265.638767,111.961821 266.622614,111.371512 266.622614,109.797357 L266.622614,108.223201 C266.032305,109.010279 265.048458,109.600587 264.064611,109.600587 C261.506608,109.600587 259.735683,107.632893 259.735683,105.271659 C259.735683,102.910426 261.506608,100.942731 264.064611,100.942731 C265.048458,100.942731 266.032305,101.53304 266.622614,102.320117 L266.622614,101.139501 L268.590308,101.139501 C268.787078,100.942731 268.787078,109.600587 268.787078,109.600587 Z M6.29662261,129.867841 L4.91923642,129.867841 L0.59030837,117.274596 L2.75477239,117.274596 L5.70631424,126.325991 L8.65785609,117.274596 L10.8223201,117.274596 L6.29662261,129.867841 Z M17.7092511,125.735683 C17.7092511,124.358297 16.7254038,123.17768 15.1512482,123.17768 C13.773862,123.17768 12.7900147,124.358297 12.7900147,125.735683 C12.7900147,127.113069 13.773862,128.293686 15.1512482,128.293686 C16.7254038,128.293686 17.7092511,127.113069 17.7092511,125.735683 M10.8223201,125.735683 C10.8223201,123.374449 12.5932452,121.406755 15.1512482,121.406755 C17.9060206,121.406755 19.4801762,123.374449 19.4801762,125.735683 C19.4801762,128.096916 17.7092511,130.064611 15.1512482,130.064611 C12.5932452,130.064611 10.8223201,127.900147 10.8223201,125.735683 M27.5477239,124.555066 C27.3509545,123.571219 26.9574156,122.98091 25.5800294,122.98091 C24.0058737,122.98091 23.4155653,124.161527 23.4155653,125.538913 C23.4155653,126.9163 24.0058737,128.096916 25.7767988,128.096916 C26.9574156,128.096916 27.3509545,127.506608 27.5477239,126.71953 L29.5154185,126.71953 C29.318649,128.490455 27.9412628,129.867841 25.5800294,129.867841 C22.825257,129.867841 21.4478708,127.703377 21.4478708,125.538913 C21.4478708,123.374449 22.825257,121.209985 25.5800294,121.209985 C28.3348018,121.209985 29.318649,122.784141 29.5154185,124.555066 L27.5477239,124.555066 L27.5477239,124.555066 Z M37.9765051,125.735683 C37.9765051,124.358297 36.9926579,123.17768 35.4185022,123.17768 C34.041116,123.17768 33.0572687,124.358297 33.0572687,125.735683 C33.0572687,127.113069 34.041116,128.293686 35.4185022,128.293686 C36.9926579,128.293686 37.9765051,127.113069 37.9765051,125.735683 Z M39.9441997,121.406755 L39.9441997,129.867841 L37.9765051,129.867841 L37.9765051,128.687225 C37.3861968,129.474302 36.4023495,130.064611 35.4185022,130.064611 C32.8604993,130.064611 31.0895742,128.096916 31.0895742,125.735683 C31.0895742,123.374449 32.8604993,121.406755 35.4185022,121.406755 C36.4023495,121.406755 37.3861968,121.997063 37.9765051,122.784141 L37.9765051,121.603524 L39.9441997,121.406755 L39.9441997,121.406755 Z M47.2246696,129.867841 C46.8311307,129.867841 46.2408223,130.064611 45.8472834,130.064611 C44.8634361,130.064611 43.092511,129.867841 43.092511,127.113069 L43.092511,123.17768 L41.7151248,123.17768 L41.7151248,121.603524 L43.092511,121.603524 L43.092511,119.045521 L45.0602056,119.045521 L45.0602056,121.603524 L47.0279001,121.603524 L47.0279001,123.17768 L45.0602056,123.17768 L45.0602056,126.522761 C45.0602056,127.900147 45.4537445,128.096916 46.2408223,128.096916 C46.6343612,128.096916 47.0279001,128.096916 47.2246696,128.096916 C47.2246696,128.096916 47.2246696,129.867841 47.2246696,129.867841 Z M48.9955947,129.867841 L50.9632893,129.867841 L50.9632893,121.603524 L48.9955947,121.603524 L48.9955947,129.867841 Z M49.979442,117.077827 C50.7665198,117.077827 51.5535977,117.668135 51.5535977,118.455213 C51.5535977,119.242291 50.9632893,120.029369 50.1762115,120.029369 C50.1762115,120.029369 49.979442,120.029369 49.979442,120.029369 C49.1923642,120.029369 48.6020558,119.242291 48.6020558,118.455213 C48.7988253,117.668135 49.3891336,117.077827 49.979442,117.077827 L49.979442,117.077827 Z M60.0146843,125.735683 C60.0146843,124.358297 59.030837,123.17768 57.4566814,123.17768 C56.0792952,123.17768 55.0954479,124.358297 55.0954479,125.735683 C55.0954479,127.113069 56.0792952,128.293686 57.4566814,128.293686 C59.030837,128.293686 60.0146843,127.113069 60.0146843,125.735683 M53.1277533,125.735683 C53.1277533,123.374449 54.8986784,121.406755 57.4566814,121.406755 C60.2114537,121.406755 61.7856094,123.374449 61.7856094,125.735683 C61.7856094,128.096916 60.0146843,130.064611 57.4566814,130.064611 C54.8986784,130.064611 53.1277533,127.900147 53.1277533,125.735683 M64.1468429,121.406755 L66.1145374,121.406755 L66.1145374,122.587372 C66.7048458,121.603524 67.6886931,121.209985 68.8693098,121.209985 C70.0499266,121.209985 70.8370044,121.603524 71.4273128,122.390602 C71.8208517,122.98091 72.0176211,123.767988 72.0176211,124.948605 L72.0176211,129.867841 L70.0499266,129.867841 L70.0499266,125.538913 C70.0499266,124.161527 69.6563877,122.98091 68.2790015,122.98091 C66.9016153,122.98091 66.3113069,124.161527 66.3113069,125.538913 L66.3113069,129.867841 L64.3436123,129.867841 C64.1468429,129.867841 64.1468429,121.406755 64.1468429,121.406755 Z M80.6754772,125.735683 C80.6754772,124.358297 79.69163,123.17768 78.1174743,123.17768 C76.7400881,123.17768 75.7562408,124.358297 75.7562408,125.735683 C75.7562408,127.113069 76.7400881,128.293686 78.1174743,128.293686 C79.69163,128.293686 80.6754772,127.113069 80.6754772,125.735683 Z M82.6431718,121.406755 L82.6431718,129.867841 L80.6754772,129.867841 L80.6754772,128.687225 C80.0851689,129.474302 79.1013216,130.064611 78.1174743,130.064611 C75.5594714,130.064611 73.7885463,128.096916 73.7885463,125.735683 C73.7885463,123.374449 75.5594714,121.406755 78.1174743,121.406755 C79.1013216,121.406755 80.0851689,121.997063 80.6754772,122.784141 L80.6754772,121.603524 L82.6431718,121.406755 L82.6431718,121.406755 Z M85.3979442,129.867841 L87.3656388,129.867841 L87.3656388,117.274596 L85.3979442,117.274596 L85.3979442,129.867841 Z M95.6299559,125.735683 C95.6299559,127.309838 96.6138032,128.293686 97.9911894,128.293686 C99.1718062,128.293686 99.958884,127.506608 99.958884,126.522761 C99.958884,125.342144 98.7782673,124.751836 97.9911894,124.555066 C95.6299559,123.767988 93.8590308,122.98091 93.8590308,120.619677 C93.8590308,118.455213 95.6299559,117.274596 97.79442,117.274596 C99.958884,117.274596 101.729809,118.848752 101.729809,121.209985 L99.7621145,121.209985 C99.7621145,120.029369 98.9750367,119.045521 97.79442,119.045521 C96.8105727,119.045521 95.8267254,119.63583 95.8267254,120.619677 C95.8267254,121.603524 96.8105727,122.193833 97.5976505,122.390602 C99.5653451,123.17768 101.926579,123.964758 101.926579,126.325991 C101.926579,128.883994 99.958884,130.26138 97.5976505,130.26138 C95.236417,130.26138 93.2687225,128.687225 93.2687225,125.932452 C93.6622614,125.735683 95.6299559,125.735683 95.6299559,125.735683 Z M110.190896,124.555066 C109.994126,123.571219 109.600587,122.98091 108.223201,122.98091 C106.649046,122.98091 106.058737,124.161527 106.058737,125.538913 C106.058737,126.9163 106.649046,128.096916 108.419971,128.096916 C109.600587,128.096916 109.994126,127.506608 110.190896,126.71953 L112.15859,126.71953 C111.961821,128.490455 110.584435,129.867841 108.223201,129.867841 C105.468429,129.867841 104.091043,127.703377 104.091043,125.538913 C104.091043,123.374449 105.468429,121.209985 108.223201,121.209985 C110.977974,121.209985 111.961821,122.784141 112.15859,124.555066 L110.190896,124.555066 L110.190896,124.555066 Z M114.323054,117.274596 L116.290749,117.274596 L116.290749,122.587372 C116.881057,121.603524 117.864905,121.209985 119.045521,121.209985 C120.226138,121.209985 121.013216,121.603524 121.603524,122.390602 C121.997063,122.98091 122.193833,123.767988 122.193833,124.948605 L122.193833,129.867841 L120.226138,129.867841 L120.226138,125.538913 C120.226138,124.161527 119.832599,122.98091 118.455213,122.98091 C117.077827,122.98091 116.487518,124.161527 116.487518,125.538913 L116.487518,129.867841 L114.519824,129.867841 L114.323054,117.274596 L114.323054,117.274596 Z M130.851689,125.735683 C130.851689,124.358297 129.867841,123.17768 128.293686,123.17768 C126.9163,123.17768 125.932452,124.358297 125.932452,125.735683 C125.932452,127.113069 126.9163,128.293686 128.293686,128.293686 C130.064611,128.293686 130.851689,127.113069 130.851689,125.735683 M124.161527,125.735683 C124.161527,123.374449 125.932452,121.406755 128.490455,121.406755 C131.245228,121.406755 132.819383,123.374449 132.819383,125.735683 C132.819383,128.096916 131.048458,130.064611 128.490455,130.064611 C125.735683,130.064611 124.161527,127.900147 124.161527,125.735683 M141.28047,125.735683 C141.28047,124.358297 140.296623,123.17768 138.722467,123.17768 C137.345081,123.17768 136.361233,124.358297 136.361233,125.735683 C136.361233,127.113069 137.345081,128.293686 138.722467,128.293686 C140.493392,128.293686 141.28047,127.113069 141.28047,125.735683 M134.590308,125.735683 C134.590308,123.374449 136.361233,121.406755 138.919236,121.406755 C141.674009,121.406755 143.248164,123.374449 143.248164,125.735683 C143.248164,128.096916 141.477239,130.064611 138.919236,130.064611 C136.164464,130.064611 134.590308,127.900147 134.590308,125.735683 M145.609398,129.867841 L147.577093,129.867841 L147.577093,117.274596 L145.609398,117.274596 L145.609398,129.867841 Z M160.367107,125.735683 C160.367107,124.358297 159.38326,123.17768 157.809104,123.17768 C156.431718,123.17768 155.447871,124.358297 155.447871,125.735683 C155.447871,127.113069 156.431718,128.293686 157.809104,128.293686 C159.38326,128.293686 160.367107,127.113069 160.367107,125.735683 M153.676946,125.735683 C153.676946,123.374449 155.447871,121.406755 158.005874,121.406755 C160.760646,121.406755 162.334802,123.374449 162.334802,125.735683 C162.334802,128.096916 160.563877,130.064611 158.005874,130.064611 C155.251101,130.064611 153.676946,127.900147 153.676946,125.735683 M169.418502,119.045521 C169.221733,119.045521 168.828194,118.848752 168.631424,118.848752 C168.041116,118.848752 167.254038,118.848752 167.254038,120.226138 L167.254038,121.406755 L169.418502,121.406755 L169.418502,122.98091 L167.254038,122.98091 L167.254038,129.867841 L165.286344,129.867841 L165.286344,123.17768 L163.515419,123.17768 L163.515419,121.603524 L165.286344,121.603524 L165.286344,120.619677 C165.286344,117.471366 167.254038,117.274596 168.237885,117.274596 C168.828194,117.274596 169.221733,117.471366 169.418502,117.471366 C169.418502,117.471366 169.418502,119.045521 169.418502,119.045521 Z M178.863436,120.619677 L177.092511,126.325991 L180.634361,126.325991 L178.863436,120.619677 Z M181.814978,129.867841 L181.22467,128.293686 L176.502203,128.293686 L175.911894,129.867841 L173.74743,129.867841 L178.076358,117.274596 L179.453744,117.274596 L183.782673,129.867841 L181.814978,129.867841 Z M187.521292,125.735683 C187.521292,127.113069 188.50514,128.293686 190.079295,128.293686 C191.456681,128.293686 192.440529,127.113069 192.440529,125.735683 C192.440529,124.358297 191.456681,123.17768 190.079295,123.17768 C188.50514,122.98091 187.521292,124.161527 187.521292,125.735683 L187.521292,125.735683 Z M187.521292,122.587372 C188.111601,121.800294 189.095448,121.209985 190.079295,121.209985 C192.637298,121.209985 194.408223,123.17768 194.408223,125.538913 C194.408223,127.900147 192.637298,129.867841 190.079295,129.867841 C189.095448,129.867841 188.111601,129.277533 187.521292,128.490455 L187.521292,133.803231 L185.553598,133.803231 L185.553598,121.209985 L187.521292,121.209985 L187.521292,122.587372 L187.521292,122.587372 Z M198.540382,125.735683 C198.540382,127.113069 199.524229,128.293686 201.098385,128.293686 C202.475771,128.293686 203.459618,127.113069 203.459618,125.735683 C203.459618,124.358297 202.475771,123.17768 201.098385,123.17768 C199.524229,122.98091 198.540382,124.161527 198.540382,125.735683 Z M198.540382,122.587372 C199.13069,121.800294 200.114537,121.209985 201.098385,121.209985 C203.656388,121.209985 205.427313,123.17768 205.427313,125.538913 C205.427313,127.900147 203.656388,129.867841 201.098385,129.867841 C200.114537,129.867841 199.13069,129.277533 198.540382,128.490455 L198.540382,133.803231 L196.572687,133.803231 L196.572687,121.209985 L198.540382,121.209985 L198.540382,122.587372 Z M207.591777,129.867841 L209.559471,129.867841 L209.559471,117.274596 L207.591777,117.274596 L207.591777,129.867841 Z M212.314244,129.867841 L214.281938,129.867841 L214.281938,121.603524 L212.314244,121.603524 L212.314244,129.867841 Z M213.298091,117.077827 C214.085169,117.077827 214.675477,117.668135 214.872247,118.455213 C214.872247,119.242291 214.281938,119.832599 213.49486,120.029369 C213.49486,120.029369 213.49486,120.029369 213.298091,120.029369 C212.511013,120.029369 211.920705,119.43906 211.920705,118.651982 C211.723935,117.668135 212.511013,117.077827 213.298091,117.077827 C213.298091,117.077827 213.298091,117.077827 213.298091,117.077827 L213.298091,117.077827 Z M218.414097,124.751836 L222.546256,124.751836 C222.546256,123.571219 221.759178,122.784141 220.578561,122.784141 C219.201175,122.784141 218.414097,123.374449 218.414097,124.751836 L218.414097,124.751836 Z M218.414097,126.325991 C218.414097,127.506608 219.004405,128.490455 220.578561,128.490455 C221.759178,128.490455 222.152717,127.900147 222.349486,127.309838 L224.317181,127.309838 C224.120411,128.687225 222.743025,130.064611 220.578561,130.064611 C217.823789,130.064611 216.446402,128.096916 216.446402,125.735683 C216.446402,123.17768 218.020558,121.406755 220.578561,121.406755 C222.743025,121.406755 224.51395,122.98091 224.51395,125.145374 C224.51395,125.342144 224.51395,125.735683 224.51395,126.325991 C224.317181,126.325991 218.414097,126.325991 218.414097,126.325991 Z M232.975037,125.735683 C232.975037,124.358297 231.991189,123.17768 230.417034,123.17768 C229.039648,123.17768 228.0558,124.358297 228.0558,125.735683 C228.0558,127.113069 229.039648,128.293686 230.417034,128.293686 C231.991189,128.293686 232.975037,127.113069 232.975037,125.735683 L232.975037,125.735683 Z M232.975037,128.687225 C232.384728,129.474302 231.400881,130.064611 230.417034,130.064611 C227.859031,130.064611 226.088106,128.096916 226.088106,125.735683 C226.088106,123.374449 227.859031,121.406755 230.417034,121.406755 C231.400881,121.406755 232.384728,121.997063 232.975037,122.784141 L232.975037,117.471366 L234.942731,117.471366 L234.942731,129.867841 L232.975037,129.867841 L232.975037,128.687225 L232.975037,128.687225 Z M245.371512,120.619677 L243.600587,126.325991 L247.142438,126.325991 L245.371512,120.619677 Z M248.323054,129.867841 L247.732746,128.293686 L243.010279,128.293686 L242.419971,129.867841 L240.255507,129.867841 L244.584435,117.274596 L245.961821,117.274596 L250.290749,129.867841 C250.487518,129.867841 248.323054,129.867841 248.323054,129.867841 Z M257.374449,123.374449 C257.17768,123.374449 256.784141,123.374449 256.587372,123.374449 C255.013216,123.374449 254.029369,124.358297 254.029369,126.325991 L254.029369,129.867841 L252.061674,129.867841 L252.061674,121.603524 L254.029369,121.603524 L254.029369,122.98091 C254.422907,122.193833 255.406755,121.603524 256.587372,121.603524 C256.98091,121.603524 257.17768,121.603524 257.374449,121.800294 C257.374449,121.406755 257.374449,123.374449 257.374449,123.374449 Z M264.26138,129.867841 C263.867841,129.867841 263.277533,130.064611 262.883994,130.064611 C261.900147,130.064611 260.129222,129.867841 260.129222,127.113069 L260.129222,123.17768 L258.751836,123.17768 L258.751836,121.603524 L260.129222,121.603524 L260.129222,119.045521 L262.096916,119.045521 L262.096916,121.603524 L264.064611,121.603524 L264.064611,123.17768 L262.096916,123.17768 L262.096916,126.522761 C262.096916,127.900147 262.490455,128.096916 263.277533,128.096916 C263.671072,128.096916 264.064611,128.096916 264.26138,128.096916 L264.26138,129.867841 L264.26138,129.867841 Z M272.328928,127.506608 C272.328928,129.277533 270.754772,130.064611 268.983847,130.064611 C267.212922,130.064611 265.638767,129.080764 265.638767,127.113069 L267.606461,127.113069 C267.606461,128.293686 268.196769,128.687225 269.180617,128.687225 C269.967695,128.687225 270.558003,128.490455 270.558003,127.703377 C270.558003,126.9163 269.770925,126.9163 268,126.129222 C266.819383,125.735683 266.032305,125.342144 266.032305,123.767988 C266.032305,122.193833 267.409692,121.406755 269.180617,121.406755 C270.951542,121.406755 272.328928,122.587372 272.328928,124.161527 L270.361233,124.161527 C270.361233,123.374449 269.967695,122.784141 268.983847,122.784141 C268.393539,122.784141 267.803231,123.17768 267.803231,123.767988 C267.803231,124.555066 268.590308,124.555066 270.164464,125.145374 C271.148311,125.538913 272.328928,125.932452 272.328928,127.506608 M22.2349486,27.3509545 C22.2349486,23.0220264 19.2834068,20.4640235 14.9544787,20.4640235 C10.8223201,20.4640235 7.47723935,22.825257 7.47723935,27.3509545 L22.2349486,27.3509545 L22.2349486,27.3509545 Z M14.9544787,14.5609398 C22.825257,14.5609398 29.1218796,20.4640235 29.1218796,28.1380323 C29.1218796,29.1218796 29.1218796,30.4992658 28.7283407,32.6637298 L7.2804699,32.6637298 C7.2804699,36.9926579 9.64170338,40.5345081 15.1512482,40.5345081 C19.2834068,40.5345081 20.660793,38.763583 21.6446402,36.5991189 L28.7283407,36.5991189 C27.7444934,41.7151248 23.0220264,46.4375918 15.1512482,46.4375918 C4.91923642,46.4375918 -1.74766385e-15,38.763583 -1.74766385e-15,30.4992658 C-1.74766385e-15,21.4478708 5.31277533,14.5609398 14.9544787,14.5609398 L14.9544787,14.5609398 Z M35.2217327,45.650514 L42.3054332,45.650514 L42.3054332,15.3480176 L35.2217327,15.3480176 L35.2217327,45.650514 L35.2217327,45.650514 Z M38.763583,0 C41.3215859,0 43.4860499,2.16446402 43.4860499,4.72246696 C43.4860499,4.72246696 43.4860499,4.72246696 43.4860499,4.72246696 C43.4860499,7.2804699 41.3215859,9.44493392 38.763583,9.44493392 C36.20558,9.44493392 34.041116,7.2804699 34.041116,4.72246696 C34.041116,2.16446402 36.20558,0 38.763583,0 Z M49.979442,45.650514 L49.979442,0.196769457 L57.0631424,0.196769457 L57.0631424,28.9251101 L68.2790015,15.5447871 L77.133627,15.5447871 L64.5403818,30.6960352 L77.133627,45.8472834 L68.2790015,45.8472834 L57.0631424,32.2701909 L57.0631424,45.650514 L49.979442,45.650514 Z" id="Shape" fill="#FFFFFF" mask="url(#mask-2)"></path>
                            </g>
                            <g id="Clipped">
                                <mask id="mask-4" fill="white">
                                    <use xlink:href="#path-3"></use>
                                </mask>
                                <g id="a_00000004535504557588586520000013004947313631421624_"></g>
                                <path d="M92.6784141,40.1409692 C97.9911894,40.1409692 101.729809,35.6152717 101.729809,30.4992658 C101.729809,25.3832599 98.1879589,20.8575624 92.6784141,20.8575624 C87.3656388,20.8575624 83.8237885,25.3832599 83.8237885,30.4992658 C83.8237885,35.8120411 87.3656388,40.1409692 92.6784141,40.1409692 M92.6784141,14.5609398 C102.320117,14.5609398 108.81351,21.8414097 108.81351,30.4992658 C108.81351,39.1571219 102.516887,46.4375918 92.6784141,46.4375918 C83.0367107,46.4375918 76.7400881,39.1571219 76.7400881,30.4992658 C76.7400881,22.0381791 83.0367107,14.5609398 92.6784141,14.5609398 M113.929515,45.650514 L113.929515,15.3480176 L121.013216,15.3480176 L121.013216,19.6769457 C122.98091,16.3318649 126.325991,14.5609398 130.851689,14.5609398 C135.180617,14.5609398 138.132159,16.1350954 139.903084,18.6930984 C141.477239,21.0543319 141.870778,23.4155653 141.870778,27.7444934 L141.870778,45.8472834 L134.787078,45.8472834 L134.787078,30.1057269 C134.787078,24.989721 133.212922,20.8575624 128.293686,20.8575624 C123.374449,20.8575624 121.013216,24.7929515 121.013216,30.1057269 L121.013216,45.8472834 C121.209985,45.650514 113.929515,45.650514 113.929515,45.650514 Z M62.3759178,50.5697504 L0.983847283,50.5697504 L0.983847283,53.9148311 L63.753304,53.9148311 L62.3759178,50.5697504 Z M66.9016153,50.5697504 L68.4757709,53.9148311 L142.854626,53.9148311 L142.854626,50.5697504 L66.9016153,50.5697504 Z" id="Shape" fill="#FFFFFF" mask="url(#mask-4)"></path>
                            </g>
                        </g>
                    </g>
                </g>
            </g>
        </g>
    </g>
</svg>