<?xml version="1.0" encoding="UTF-8"?>
<svg width="441.814777px" height="154px" viewBox="0 0 441.814777 154" version="1.1" xmlns="http://www.w3.org/2000/svg" xmlns:xlink="http://www.w3.org/1999/xlink">
    <title>logo/loterie_romande_black</title>
    <g id="Page-1" stroke="none" stroke-width="1" fill="none" fill-rule="evenodd" opacity="0.5">
        <g id="acceuil" transform="translate(-619, -9439)" fill="#FFFFFF" fill-rule="nonzero">
            <g id="footer" transform="translate(19, 9261)">
                <g id="partenariat" transform="translate(0, 133)">
                    <g id="logo/loterie_romande_black" transform="translate(600, 45)">
                        <path d="M32.3431174,70.0637652 C32.3431174,52.9959514 46.0597166,39.0455466 62.9716599,39.0455466 C79.8836032,39.0455466 93.6781377,52.9959514 93.6781377,70.0637652 C93.6781377,87.1315789 79.8836032,101.004374 62.9716599,101.004374 C46.1376518,101.081984 32.3431174,87.1315789 32.3431174,70.0637652 Z M441.814777,0 L441.814777,154 L1.13686838e-13,154 L1.13686838e-13,0 L441.814777,0 Z M14.5738866,60.1659919 C14.5738866,86.9757085 36.2398785,108.719636 63.0495951,108.719636 C89.8593117,108.719636 111.525304,86.9757085 111.525304,60.1659919 C111.525304,33.2783401 89.8593117,11.534413 63.0495951,11.534413 C36.2398785,11.534413 14.5738866,33.2783401 14.5738866,60.1659919 Z M3.35121457,24.9392713 C8.33906883,16.3663968 15.1973684,9.04048583 23.2246964,3.35121457 L3.35121457,3.35121457 L3.35121457,24.9392713 Z M438.463563,3.35121457 L102.874494,3.35121457 C120.72166,15.8987854 132.334008,36.6295547 132.334008,60.1659919 C132.334008,98.5101215 101.315789,129.606275 63.0495951,129.606275 C37.6427126,129.606275 15.4311741,115.889676 3.35121457,95.3927126 L3.35121457,150.648785 L438.463563,150.648785 L438.463563,3.35121457 Z M196.552632,31.0961538 L208.788462,31.0961538 L208.788462,56.7368421 L220.790486,56.7368421 L220.790486,67.1801619 L196.552632,67.1801619 L196.552632,31.0961538 L196.552632,31.0961538 Z M225.232794,48.9433198 C225.232794,46.0597166 225.77834,43.409919 226.791498,41.0718623 C227.804656,38.7338057 229.20749,36.7854251 231,35.1487854 C232.79251,33.5121457 234.896761,32.2651822 237.390688,31.4078947 C239.80668,30.5506073 242.456478,30.082996 245.340081,30.082996 C248.223684,30.082996 250.873482,30.5506073 253.289474,31.4078947 C255.705466,32.2651822 257.887652,33.590081 259.680162,35.1487854 C261.472672,36.7854251 262.875506,38.7338057 263.888664,41.0718623 C264.901822,43.409919 265.447368,46.0597166 265.447368,48.9433198 C265.447368,51.8269231 264.901822,54.4767206 263.888664,56.8927126 C262.875506,59.3087045 261.472672,61.3350202 259.680162,62.9716599 C257.887652,64.6862348 255.783401,65.9331984 253.289474,66.8684211 C250.873482,67.8036437 248.145749,68.2712551 245.340081,68.2712551 C242.456478,68.2712551 239.80668,67.8036437 237.390688,66.8684211 C234.974696,65.9331984 232.79251,64.6862348 231,62.9716599 C229.20749,61.257085 227.804656,59.2307692 226.791498,56.8927126 C225.77834,54.4767206 225.232794,51.8269231 225.232794,48.9433198 Z M238.17004,48.9433198 C238.17004,50.1123482 238.325911,51.2034413 238.715587,52.2165992 C239.105263,53.2297571 239.572874,54.0870445 240.196356,54.7884615 C240.819838,55.4898785 241.59919,56.0354251 242.456478,56.4251012 C243.313765,56.8147773 244.326923,57.048583 245.340081,57.048583 C246.353239,57.048583 247.288462,56.8927126 248.145749,56.4251012 C249.003036,56.0354251 249.782389,55.4898785 250.40587,54.7884615 C251.029352,54.0870445 251.574899,53.2297571 251.88664,52.2165992 C252.276316,51.2034413 252.432186,50.1123482 252.432186,48.9433198 C252.432186,47.7742915 252.276316,46.7611336 251.88664,45.7479757 C251.496964,44.812753 251.029352,43.9554656 250.40587,43.3319838 C249.782389,42.708502 249.003036,42.1629555 248.145749,41.7732794 C247.288462,41.3836032 246.353239,41.2277328 245.340081,41.2277328 C244.326923,41.2277328 243.3917,41.3836032 242.456478,41.7732794 C241.59919,42.1629555 240.819838,42.708502 240.196356,43.3319838 C239.572874,43.9554656 239.105263,44.812753 238.715587,45.7479757 C238.403846,46.7611336 238.17004,47.7742915 238.17004,48.9433198 Z M290.464575,67.2580972 L278.30668,67.2580972 L278.30668,41.305668 L269.422065,41.305668 L269.422065,31.0961538 L299.34919,31.0961538 L299.34919,41.305668 L290.464575,41.305668 L290.464575,67.2580972 Z M306.051619,31.0961538 L330.912955,31.0961538 L330.912955,41.2277328 L317.508097,41.2277328 L317.508097,44.3451417 L330.133603,44.3451417 L330.133603,53.7753036 L317.508097,53.7753036 L317.508097,57.1265182 L331.848178,57.1265182 L331.848178,67.2580972 L306.129555,67.2580972 L306.129555,31.0961538 L306.051619,31.0961538 Z M339.875506,31.0961538 L355.462551,31.0961538 C357.255061,31.0961538 358.969636,31.2520243 360.762146,31.6417004 C362.554656,32.0313765 364.11336,32.6548583 365.438259,33.5121457 C366.841093,34.4473684 367.932186,35.6163968 368.789474,37.1751012 C369.646761,38.6558704 370.036437,40.604251 370.036437,42.8643725 C370.036437,45.0465587 369.490891,46.9949393 368.399798,48.7095142 C367.308704,50.4240891 365.75,51.6710526 363.723684,52.6062753 L372.92004,67.2580972 L358.969636,67.2580972 L352.033401,54.3208502 L351.643725,54.3208502 L351.643725,67.2580972 L339.875506,67.2580972 L339.875506,31.0961538 L339.875506,31.0961538 Z M351.565789,46.3714575 L353.981781,46.3714575 C354.371457,46.3714575 354.839069,46.3714575 355.30668,46.2935223 C355.774291,46.215587 356.241903,46.0597166 356.709514,45.8259109 C357.09919,45.5921053 357.488866,45.2803644 357.800607,44.8906883 C358.112348,44.5010121 358.268219,43.9554656 358.268219,43.3319838 C358.268219,42.708502 358.112348,42.1629555 357.878543,41.7732794 C357.644737,41.3836032 357.332996,41.1497976 356.94332,40.9159919 C356.553644,40.7601215 356.163968,40.604251 355.774291,40.5263158 C355.30668,40.4483806 354.917004,40.4483806 354.527328,40.4483806 L351.643725,40.4483806 L351.643725,46.3714575 L351.565789,46.3714575 Z M377.440283,31.0961538 L389.676113,31.0961538 L389.676113,67.2580972 L377.440283,67.2580972 L377.440283,31.0961538 Z M397.3917,31.0961538 L422.253036,31.0961538 L422.253036,41.2277328 L408.848178,41.2277328 L408.848178,44.3451417 L421.473684,44.3451417 L421.473684,53.7753036 L408.848178,53.7753036 L408.848178,57.1265182 L423.188259,57.1265182 L423.188259,67.2580972 L397.469636,67.2580972 L397.469636,31.0961538 L397.3917,31.0961538 Z M142.465587,83.8582996 L157.974696,83.8582996 C159.767206,83.8582996 161.481781,84.01417 163.274291,84.4038462 C164.988866,84.7935223 166.547571,85.417004 167.950405,86.2742915 C169.353239,87.2095142 170.444332,88.3785425 171.301619,89.937247 C172.158907,91.4180162 172.548583,93.3663968 172.548583,95.6265182 C172.548583,97.8087045 172.003036,99.757085 170.911943,101.47166 C169.82085,103.186235 168.262146,104.433198 166.23583,105.368421 L175.354251,120.020243 L161.403846,120.020243 L154.467611,107.160931 L154.077935,107.160931 L154.077935,120.020243 L142.309717,120.020243 L142.309717,83.8582996 L142.465587,83.8582996 Z M154.15587,99.055668 L156.493927,99.055668 C156.883603,99.055668 157.351215,99.055668 157.818826,98.9777328 C158.286437,98.8997976 158.754049,98.7439271 159.143725,98.5101215 C159.533401,98.2763158 159.923077,97.9645749 160.234818,97.5748988 C160.546559,97.1852227 160.624494,96.6396761 160.624494,96.0161943 C160.624494,95.3927126 160.468623,94.847166 160.234818,94.4574899 C160.001012,94.0678138 159.689271,93.8340081 159.299595,93.6002024 C158.909919,93.444332 158.520243,93.2884615 158.052632,93.2105263 C157.58502,93.1325911 157.195344,93.1325911 156.805668,93.1325911 L153.922065,93.1325911 L153.922065,99.055668 L154.15587,99.055668 Z M177.380567,101.705466 C177.380567,98.8218623 177.926113,96.25 178.939271,93.9119433 C179.952429,91.5738866 181.355263,89.6255061 183.147773,87.9888664 C184.940283,86.3522267 187.044534,85.1052632 189.460526,84.2479757 C191.876518,83.3906883 194.604251,82.9230769 197.409919,82.9230769 C200.293522,82.9230769 202.94332,83.3906883 205.359312,84.2479757 C207.775304,85.1052632 209.95749,86.3522267 211.75,87.9888664 C213.54251,89.6255061 214.945344,91.5738866 215.958502,93.9119433 C216.97166,96.25 217.517206,98.8218623 217.517206,101.705466 C217.517206,104.589069 216.97166,107.238866 215.958502,109.576923 C214.945344,111.992915 213.54251,114.019231 211.75,115.65587 C209.95749,117.370445 207.853239,118.617409 205.359312,119.552632 C202.94332,120.487854 200.293522,120.955466 197.409919,120.955466 C194.526316,120.955466 191.876518,120.487854 189.460526,119.552632 C187.044534,118.617409 184.940283,117.370445 183.147773,115.65587 C181.355263,113.941296 179.952429,111.91498 178.939271,109.576923 C177.848178,107.238866 177.380567,104.589069 177.380567,101.705466 Z M190.239879,101.705466 C190.239879,102.874494 190.395749,103.965587 190.785425,104.978745 C191.175101,105.991903 191.642713,106.84919 192.266194,107.550607 C192.889676,108.252024 193.669028,108.797571 194.526316,109.187247 C195.383603,109.576923 196.396761,109.810729 197.409919,109.810729 C198.423077,109.810729 199.3583,109.576923 200.215587,109.187247 C201.072874,108.797571 201.852227,108.252024 202.475709,107.550607 C203.09919,106.84919 203.644737,105.991903 203.956478,104.978745 C204.268219,103.965587 204.502024,102.874494 204.502024,101.705466 C204.502024,100.536437 204.346154,99.5232794 203.956478,98.5101215 C203.566802,97.5748988 203.09919,96.7176113 202.475709,96.0941296 C201.852227,95.4706478 201.072874,94.9251012 200.215587,94.5354251 C199.3583,94.145749 198.423077,93.9898785 197.409919,93.9898785 C196.396761,93.9898785 195.461538,94.145749 194.526316,94.5354251 C193.669028,94.9251012 192.889676,95.4706478 192.266194,96.0941296 C191.642713,96.7955466 191.175101,97.5748988 190.785425,98.5101215 C190.395749,99.4453441 190.239879,100.536437 190.239879,101.705466 Z M233.338057,99.5232794 L233.883603,119.942308 L222.582996,119.942308 L222.582996,83.8582996 L238.481781,83.8582996 L245.02834,103.26417 L245.262146,103.26417 L250.951417,83.8582996 L267.317814,83.8582996 L267.317814,119.942308 L255.47166,119.942308 L255.861336,99.6791498 L255.549595,99.6012146 L248.847166,119.942308 L240.274291,119.942308 L233.649798,99.5232794 L233.338057,99.5232794 L233.338057,99.5232794 Z M285.788462,83.8582996 L298.647773,83.8582996 L312.676113,119.942308 L299.505061,119.942308 L297.634615,114.642713 L286.178138,114.642713 L284.385628,119.942308 L271.526316,119.942308 L285.788462,83.8582996 Z M292.023279,96.4058704 L289.061741,105.368421 L294.906883,105.368421 L292.023279,96.4058704 Z M317.040486,83.8582996 L329.120445,83.8582996 L339.407895,102.173077 L339.6417,102.173077 L339.174089,83.8582996 L350.708502,83.8582996 L350.708502,119.942308 L338.238866,119.942308 L328.263158,102.718623 L328.029352,102.718623 L328.574899,119.942308 L317.040486,119.942308 L317.040486,83.8582996 L317.040486,83.8582996 Z M357.332996,119.942308 L357.332996,83.8582996 L370.815789,83.8582996 C373.699393,83.8582996 376.427126,84.1700405 378.998988,84.715587 C381.57085,85.2611336 383.908907,86.2742915 385.857287,87.5991903 C387.883603,89.0020243 389.442308,90.7945344 390.611336,93.0546559 C391.780364,95.3147773 392.403846,98.1983806 392.403846,101.62753 C392.403846,104.822874 391.8583,107.550607 390.689271,109.810729 C389.520243,112.148785 388.039474,114.019231 386.091093,115.5 C384.220648,116.980769 381.960526,118.071862 379.544534,118.773279 C377.050607,119.474696 374.478745,119.864372 371.828947,119.864372 L357.332996,119.864372 L357.332996,119.942308 Z M369.023279,94.145749 L369.023279,109.498988 L371.283401,109.498988 C374.167004,109.498988 376.34919,108.875506 377.82996,107.628543 C379.388664,106.381579 380.090081,104.355263 380.090081,101.549595 C380.090081,99.2115385 379.310729,97.4190283 377.82996,96.0941296 C376.271255,94.7692308 374.244939,94.145749 371.673077,94.145749 L369.023279,94.145749 L369.023279,94.145749 Z M397.469636,83.8582996 L422.253036,83.8582996 L422.253036,93.9119433 L408.848178,93.9119433 L408.848178,97.0293522 L421.395749,97.0293522 L421.395749,106.459514 L408.848178,106.459514 L408.848178,109.810729 L423.188259,109.810729 L423.188259,119.864372 L397.469636,119.864372 L397.469636,83.8582996 Z" id="Shape"></path>
                    </g>
                </g>
            </g>
        </g>
    </g>
</svg>