<?xml version="1.0" encoding="UTF-8"?>
<svg width="681.719395px" height="145px" viewBox="0 0 681.719395 145" version="1.1" xmlns="http://www.w3.org/2000/svg" xmlns:xlink="http://www.w3.org/1999/xlink">
    <title>logos/eikonica-logo</title>
    <g id="Page-1" stroke="none" stroke-width="1" fill="none" fill-rule="evenodd">
        <g id="acceuil" transform="translate(-138, -260)" fill="#FFFFFF" fill-rule="nonzero">
            <g id="header" transform="translate(-2, 0)">
                <g id="title" transform="translate(96, 260)">
                    <g id="logos/eikonica-logo" transform="translate(44, 0)">
                        <path d="M88.1568088,70.605227 L88.1568088,93.9408528 C88.1568088,98.3287483 84.5667125,101.719395 80.3782669,101.719395 L24.7317744,101.719395 C20.343879,101.719395 16.9532325,105.309491 16.9532325,109.497937 L16.9532325,115.082531 C16.9532325,117.077029 17.7510316,119.071527 19.1471802,120.667125 L25.9284732,127.448418 C27.3246217,128.844567 29.3191197,129.642366 31.5130674,129.642366 L59.8349381,129.642366 C61.829436,129.642366 63.823934,128.844567 65.4195323,127.448418 L71.4030261,121.464924 C74.394773,118.473177 79.3810179,118.473177 82.3727648,121.464924 L82.3727648,121.464924 C85.3645117,124.456671 85.3645117,129.442916 82.3727648,132.434663 L72.4002751,142.407153 C71.0041265,143.803301 69.0096286,144.6011 66.8156809,144.6011 L23.9339752,144.6011 C21.9394773,144.6011 19.9449794,143.803301 18.349381,142.407153 L2.19394773,126.251719 C0.797799175,124.855571 0,122.861073 0,120.866575 L0,70.605227 C0,68.610729 0.797799175,66.6162311 2.19394773,65.0206327 L18.349381,48.8651994 C19.7455296,47.4690509 21.7400275,46.6712517 23.9339752,46.6712517 L64.0233838,46.6712517 C66.0178817,46.6712517 68.0123796,47.4690509 69.607978,48.8651994 L85.7634113,65.0206327 C87.1595598,66.6162311 88.1568088,68.610729 88.1568088,70.605227 Z M71.2035763,79.1815681 L71.2035763,76.1898212 C71.2035763,74.1953232 70.4057772,72.2008253 69.0096286,70.605227 L62.0288858,63.823934 C60.6327373,62.4277854 58.6382393,61.6299862 56.4442916,61.6299862 L31.5130674,61.6299862 C29.5185695,61.6299862 27.5240715,62.4277854 25.9284732,63.823934 L19.1471802,70.605227 C17.7510316,72.0013755 16.9532325,73.9958735 16.9532325,76.1898212 L16.9532325,79.1815681 C16.9532325,83.5694635 20.5433287,86.96011 24.7317744,86.96011 L63.4250344,86.96011 C67.6134801,87.1595598 71.2035763,83.5694635 71.2035763,79.1815681 Z" id="Shape"></path>
                        <path d="M116.877579,1.59559835 L116.877579,1.59559835 C121.464924,1.59559835 125.25447,5.38514443 125.25447,9.97248968 L125.25447,14.9587345 C125.25447,19.5460798 121.464924,23.3356259 116.877579,23.3356259 L116.877579,23.3356259 C112.290234,23.3356259 108.500688,19.5460798 108.500688,14.9587345 L108.500688,9.97248968 C108.301238,5.38514443 112.090784,1.59559835 116.877579,1.59559835 Z M116.877579,46.6712517 L116.877579,46.6712517 C121.464924,46.6712517 125.25447,50.4607978 125.25447,55.0481431 L125.25447,136.224209 C125.25447,140.811554 121.464924,144.6011 116.877579,144.6011 L116.877579,144.6011 C112.290234,144.6011 108.500688,140.811554 108.500688,136.224209 L108.500688,55.0481431 C108.301238,50.4607978 112.090784,46.6712517 116.877579,46.6712517 Z" id="Shape"></path>
                        <path d="M211.416781,142.407153 L180.701513,111.093535 C175.914718,106.10729 167.537827,109.697387 167.537827,116.47868 L167.537827,137.221458 C167.537827,141.409904 164.14718,144.80055 159.958735,144.80055 L158.363136,144.80055 C154.174691,144.80055 150.784044,141.409904 150.784044,137.221458 L150.784044,7.57909216 C150.784044,3.39064649 154.174691,0 158.363136,0 L159.958735,0 C164.14718,0 167.537827,3.39064649 167.537827,7.57909216 L167.537827,73.3975241 C167.537827,80.1788171 175.914718,83.7689133 180.701513,78.7826685 L210.020633,48.8651994 C211.416781,47.4690509 213.411279,46.4718019 215.405777,46.4718019 L215.405777,46.4718019 C222.18707,46.4718019 225.577717,54.6492435 220.790922,59.4360385 L192.070151,88.954608 C189.078404,91.9463549 189.078404,96.7331499 192.070151,99.7248968 L223.782669,131.636864 C228.569464,136.423659 225.178817,144.6011 218.397524,144.6011 L217.001376,144.6011 C214.807428,144.80055 213.01238,144.002751 211.416781,142.407153 Z" id="Path"></path>
                        <path d="M331.286107,75.392022 L331.286107,116.07978 C331.286107,121.265475 329.291609,126.05227 325.701513,129.642366 L316.327373,139.016506 C312.737276,142.606602 307.751032,144.6011 302.764787,144.6011 L272.049519,144.6011 C266.863824,144.6011 262.077029,142.606602 258.486933,139.016506 L249.112792,129.642366 C245.522696,126.05227 243.528198,121.066025 243.528198,116.07978 L243.528198,75.392022 C243.528198,70.2063274 245.522696,65.4195323 249.112792,61.829436 L258.486933,52.4552957 C262.077029,48.8651994 267.063274,46.8707015 272.049519,46.8707015 L302.764787,46.8707015 C307.950481,46.8707015 312.737276,48.8651994 316.327373,52.4552957 L325.701513,61.829436 C329.291609,65.4195323 331.286107,70.2063274 331.286107,75.392022 Z M314.532325,110.495186 L314.532325,80.9766162 C314.532325,75.7909216 312.537827,71.0041265 308.94773,67.4140303 L308.94773,67.4140303 C305.158184,63.823934 300.371389,61.829436 295.185695,61.829436 L279.429161,61.829436 C274.243466,61.829436 269.456671,63.823934 265.866575,67.4140303 L265.866575,67.4140303 C262.276479,71.0041265 260.281981,75.9903714 260.281981,80.9766162 L260.281981,110.495186 C260.281981,115.68088 262.276479,120.467675 265.866575,124.057772 L265.866575,124.057772 C269.456671,127.647868 274.442916,129.642366 279.429161,129.642366 L295.185695,129.642366 C300.371389,129.642366 305.158184,127.647868 308.748281,124.057772 L308.748281,124.057772 C312.537827,120.467675 314.532325,115.481431 314.532325,110.495186 Z" id="Shape"></path>
                        <path d="M437.792297,66.4167813 L437.792297,139.016506 C437.792297,142.207703 435.19945,144.80055 432.008253,144.80055 L426.623109,144.80055 C423.431912,144.80055 420.839065,142.207703 420.839065,139.016506 L420.839065,72.7991747 C420.839065,71.2035763 420.240715,69.8074278 419.044017,68.610729 L413.858322,63.4250344 C412.861073,62.4277854 411.265475,61.6299862 409.669876,61.6299862 L390.921596,61.6299862 C389.325997,61.6299862 387.929849,62.2283356 386.73315,63.4250344 L371.375516,78.7826685 C370.378267,79.7799175 369.580468,81.3755158 369.580468,82.9711142 L369.580468,139.215956 C369.580468,142.407153 366.98762,145 363.796424,145 L358.411279,145 C355.220083,145 352.627235,142.407153 352.627235,139.215956 L352.627235,52.4552957 C352.627235,49.264099 355.220083,46.6712517 358.411279,46.6712517 L362.400275,46.6712517 C365.591472,46.6712517 367.984869,49.0646492 368.184319,52.2558459 L368.184319,52.2558459 C368.383769,57.2420908 374.566713,59.6354883 378.156809,56.045392 L385.935351,48.2668501 C386.9326,47.2696011 388.528198,46.4718019 390.123796,46.4718019 L417.847318,46.4718019 C419.442916,46.4718019 420.839065,47.0701513 422.035763,48.2668501 L435.997249,62.2283356 C437.193948,63.4250344 437.792297,64.8211829 437.792297,66.4167813 Z" id="Path"></path>
                        <path d="M470.103164,1.59559835 L470.103164,1.59559835 C474.690509,1.59559835 478.480055,5.38514443 478.480055,9.97248968 L478.480055,14.9587345 C478.480055,19.5460798 474.690509,23.3356259 470.103164,23.3356259 L470.103164,23.3356259 C465.515818,23.3356259 461.726272,19.5460798 461.726272,14.9587345 L461.726272,9.97248968 C461.726272,5.38514443 465.515818,1.59559835 470.103164,1.59559835 Z M470.103164,46.6712517 L470.103164,46.6712517 C474.690509,46.6712517 478.480055,50.4607978 478.480055,55.0481431 L478.480055,136.224209 C478.480055,140.811554 474.690509,144.6011 470.103164,144.6011 L470.103164,144.6011 C465.515818,144.6011 461.726272,140.811554 461.726272,136.224209 L461.726272,55.0481431 C461.726272,50.4607978 465.515818,46.6712517 470.103164,46.6712517 Z" id="Shape"></path>
                        <path d="M579.6011,132.634113 L569.628611,142.606602 C568.232462,144.002751 566.237964,144.80055 564.044017,144.80055 L524.154058,144.80055 C522.15956,144.80055 520.165062,144.002751 518.569464,142.606602 L502.41403,126.451169 C501.017882,125.055021 500.220083,123.060523 500.220083,120.866575 L500.220083,70.605227 C500.220083,68.610729 501.017882,66.6162311 502.41403,65.0206327 L518.569464,48.8651994 C519.965612,47.4690509 521.96011,46.6712517 524.154058,46.6712517 L563.046768,46.6712517 C565.041265,46.6712517 567.035763,47.4690509 568.631362,48.8651994 L578.603851,58.8376891 C581.595598,61.829436 581.595598,66.8156809 578.603851,69.8074278 L578.603851,69.8074278 C575.612105,72.7991747 570.62586,72.7991747 567.634113,69.8074278 L561.850069,64.0233838 C560.45392,62.6272352 558.459422,61.829436 556.265475,61.829436 L531.73315,61.829436 C529.738652,61.829436 527.744154,62.6272352 526.148556,64.0233838 L519.566713,70.605227 C518.170564,72.0013755 517.372765,73.9958735 517.372765,76.1898212 L517.372765,115.082531 C517.372765,117.077029 518.170564,119.071527 519.566713,120.667125 L526.148556,127.248968 C527.544704,128.645117 529.539202,129.442916 531.73315,129.442916 L557.262724,129.442916 C559.257221,129.442916 561.251719,128.645117 562.847318,127.248968 L568.631362,121.464924 C571.623109,118.473177 576.609354,118.473177 579.6011,121.464924 L579.6011,121.464924 C582.592847,124.656121 582.592847,129.642366 579.6011,132.634113 Z" id="Path"></path>
                        <path d="M681.719395,66.4167813 L681.719395,139.016506 C681.719395,142.207703 679.126547,144.80055 675.935351,144.80055 L671.946355,144.80055 C668.755158,144.80055 666.361761,142.407153 666.162311,139.215956 L666.162311,139.215956 C665.962861,134.229711 659.779917,131.836314 656.189821,135.42641 L648.411279,143.204952 C647.41403,144.202201 645.818432,145 644.222834,145 L612.909216,145 C611.313618,145 609.917469,144.401651 608.72077,143.204952 L595.357634,129.841816 C594.360385,128.844567 593.562586,127.248968 593.562586,125.65337 L593.562586,107.503439 C593.562586,105.90784 594.160935,104.511692 595.357634,103.314993 L606.726272,91.9463549 C607.723521,90.9491059 609.11967,90.3507565 610.515818,90.3507565 L658.982118,86.96011 C661.973865,86.7606602 664.367263,84.1678129 664.367263,81.176066 L664.367263,72.5997249 C664.367263,71.0041265 663.768913,69.607978 662.572215,68.4112792 L657.18707,63.0261348 C656.189821,62.0288858 654.594223,61.2310867 652.998624,61.2310867 L622.682256,61.2310867 C621.086657,61.2310867 619.690509,61.829436 618.49381,63.0261348 L611.114168,70.4057772 C608.92022,72.5997249 605.130674,72.5997249 602.936726,70.4057772 L600.144429,67.6134801 C597.950481,65.4195323 597.950481,61.6299862 600.144429,59.4360385 L611.313618,48.2668501 C612.310867,47.2696011 613.906465,46.4718019 615.502063,46.4718019 L661.574966,46.4718019 C663.170564,46.4718019 664.566713,47.0701513 665.763411,48.2668501 L679.724897,62.2283356 C681.121045,63.4250344 681.719395,64.8211829 681.719395,66.4167813 Z M664.766162,108.500688 L664.766162,107.702889 C664.766162,104.312242 661.973865,101.719395 658.583219,101.918845 L618.89271,104.711142 C617.496561,104.711142 616.100413,105.309491 615.302613,106.30674 L612.709766,108.899587 C611.712517,109.896836 610.914718,111.492435 610.914718,113.088033 L610.914718,119.869326 C610.914718,121.464924 611.513067,122.861073 612.709766,124.057772 L616.698762,128.046768 C617.696011,129.044017 619.291609,129.841816 620.887208,129.841816 L643.624484,129.841816 C645.220083,129.841816 646.616231,129.243466 647.81293,128.046768 L663.370014,112.489684 C664.167813,111.691884 664.766162,110.096286 664.766162,108.500688 Z" id="Shape"></path>
                    </g>
                </g>
            </g>
        </g>
    </g>
</svg>