<?xml version="1.0" encoding="UTF-8"?>
<svg width="201.170186px" height="198.727042px" viewBox="0 0 201.170186 198.727042" version="1.1" xmlns="http://www.w3.org/2000/svg" xmlns:xlink="http://www.w3.org/1999/xlink">
    <title>logo/etat_de_fribourgLogo</title>
    <g id="Page-1" stroke="none" stroke-width="1" fill="none" fill-rule="evenodd" opacity="0.5">
        <g id="acceuil" transform="translate(-19, -9394)" fill="#FFFFFF" fill-rule="nonzero">
            <g id="footer" transform="translate(19, 9261)">
                <g id="partenariat" transform="translate(0, 133)">
                    <g id="logo/etat_de_fribourgLogo" transform="translate(-0, 0)">
                        <path d="M1.09183276,95.0029296 L1.09183276,99.0973024 C13.1019931,96.0947623 25.9310281,88.7248912 33.027941,82.1738946 C37.6682302,77.8065636 41.7626031,72.620358 45.0381014,66.6152778 C45.0381014,66.6152778 45.3110596,66.3423196 45.3110596,66.0693614 C48.3135996,60.6101976 50.4972652,54.0592011 52.1350143,46.4163717 C56.5023454,25.3985911 49.9513488,4.38081046 48.5865578,1.65122856 C46.9488087,-0.259478773 44.7651432,0.0134794168 43.127394,0.0134794168 C42.8544358,0.0134794168 42.3085195,0.0134794168 42.0355613,0.0134794168 L1.09183276,0.0134794168 L1.09183276,48.0541209 L32.4820246,48.0541209 C32.7549828,48.0541209 33.3008992,48.0541209 33.3008992,48.0541209 C34.392732,48.3270791 35.2116065,48.8729954 35.2116065,49.9648282 C35.2116065,50.2377864 35.2116065,50.5107446 35.2116065,50.7837028 C35.2116065,60.3372394 30.5713173,79.1713545 3.54845647,91.1815149 L1.09183276,92.2733477 L1.09183276,95.0029296 Z" id="Path"></path>
                        <g id="Group" transform="translate(0, 121.7528)">
                            <polygon id="Path" points="1.09183276 0.27295819 11.7372022 0.27295819 11.7372022 1.91070733 3.27549828 1.91070733 3.27549828 6.82395475 11.1912858 6.82395475 11.1912858 8.46170389 3.27549828 8.46170389 3.27549828 13.6479095 11.7372022 13.6479095 11.7372022 15.2856586 1.09183276 15.2856586"></polygon>
                            <polygon id="Path" points="18.0152405 1.91070733 13.1019931 1.91070733 13.1019931 0.27295819 25.3851117 0.27295819 25.3851117 1.91070733 20.1989061 1.91070733 20.1989061 15.5586168 18.0152405 15.5586168"></polygon>
                            <path d="M29.4794845,0.27295819 L31.6631501,0.27295819 L37.6682302,15.5586168 L35.4845647,15.5586168 L33.8468156,10.9183276 L27.295819,10.9183276 L25.6580699,15.5586168 L23.4744043,15.5586168 L29.4794845,0.27295819 Z M27.8417354,9.28057846 L33.027941,9.28057846 L30.5713173,2.18366552 L30.5713173,2.18366552 L27.8417354,9.28057846 Z" id="Shape"></path>
                            <polygon id="Path" points="41.2166867 1.91070733 36.0304811 1.91070733 36.0304811 0.27295819 48.3135996 0.27295819 48.3135996 1.91070733 43.127394 1.91070733 43.127394 15.5586168 41.2166867 15.5586168"></polygon>
                            <path d="M56.7753035,0.27295819 L61.9615092,0.27295819 C66.6017984,0.27295819 69.3313803,2.7295819 69.3313803,7.64282932 C69.3313803,12.8290349 67.1477148,15.5586168 61.9615092,15.5586168 L56.7753035,15.5586168 L56.7753035,0.27295819 Z M58.6860109,13.9208677 L61.9615092,13.9208677 C63.3263001,13.9208677 67.1477148,13.6479095 67.1477148,7.91578751 C67.1477148,4.36733104 65.7829238,2.18366552 61.9615092,2.18366552 L58.4130527,2.18366552 L58.4130527,13.9208677 L58.6860109,13.9208677 Z" id="Shape"></path>
                            <polygon id="Path" points="72.0609622 0.27295819 82.7063316 0.27295819 82.7063316 1.91070733 74.2446277 1.91070733 74.2446277 6.82395475 82.1604152 6.82395475 82.1604152 8.46170389 74.2446277 8.46170389 74.2446277 13.6479095 82.7063316 13.6479095 82.7063316 15.2856586 72.0609622 15.2856586 72.0609622 0.27295819"></polygon>
                            <polygon id="Path" points="91.9869101 0.27295819 102.086363 0.27295819 102.086363 1.91070733 94.1705756 1.91070733 94.1705756 6.82395475 101.267489 6.82395475 101.267489 8.46170389 94.1705756 8.46170389 94.1705756 15.5586168 92.2598683 15.5586168 92.2598683 0.27295819"></polygon>
                            <path d="M104.542987,0.27295819 L111.6399,0.27295819 C114.369482,0.27295819 116.280189,1.91070733 116.280189,4.36733104 C116.280189,6.27803837 115.461314,7.64282932 113.550607,8.1887457 L113.550607,8.1887457 C115.461314,8.46170389 115.734273,9.82649484 115.734273,11.464244 C115.734273,12.8290349 115.734273,14.7397423 116.553147,15.5586168 L114.369482,15.5586168 C113.823565,15.0127005 114.096523,13.3749513 113.823565,11.7372022 C113.550607,10.3724112 113.277649,9.00762027 111.366942,9.00762027 L106.726652,9.00762027 L106.726652,15.5586168 L104.815945,15.5586168 L104.815945,0.27295819 L104.542987,0.27295819 Z M110.821025,7.36987113 C112.731733,7.36987113 114.369482,6.82395475 114.369482,4.64028923 C114.369482,3.27549828 113.550607,1.91070733 111.6399,1.91070733 L106.726652,1.91070733 L106.726652,7.09691294 L110.821025,7.09691294 L110.821025,7.36987113 Z" id="Shape"></path>
                            <polygon id="Path" points="119.828645 0.27295819 121.739353 0.27295819 121.739353 15.5586168 119.828645 15.5586168"></polygon>
                            <path d="M125.560767,0.27295819 L131.019931,0.27295819 C132.384722,0.27295819 134.022471,0.27295819 135.114304,0.81887457 C136.206137,1.36479095 137.025011,2.45662371 137.025011,4.09437285 C137.025011,5.73212199 136.206137,6.82395475 134.841346,7.64282932 L134.841346,7.64282932 C136.752053,7.91578751 137.843886,9.55353665 137.843886,11.1912858 C137.843886,13.3749513 136.206137,15.5586168 133.203597,15.5586168 L125.833726,15.5586168 L125.833726,0.27295819 L125.560767,0.27295819 Z M127.744433,6.82395475 L131.838806,6.82395475 C134.022471,6.82395475 135.114304,6.00508018 135.114304,4.36733104 C135.114304,2.18366552 133.749513,1.91070733 131.838806,1.91070733 L127.744433,1.91070733 L127.744433,6.82395475 Z M127.744433,13.9208677 L132.930639,13.9208677 C134.568388,13.9208677 135.66022,12.8290349 135.66022,11.1912858 C135.66022,9.28057846 134.022471,8.73466208 132.384722,8.73466208 L127.744433,8.73466208 L127.744433,13.9208677 L127.744433,13.9208677 Z" id="Shape"></path>
                            <path d="M147.124464,1.42108547e-14 C152.037712,1.42108547e-14 154.494336,3.82141466 154.494336,7.91578751 C154.494336,12.0101604 152.037712,15.831575 147.124464,15.831575 C142.211217,15.831575 139.754593,12.0101604 139.754593,7.91578751 C139.754593,3.82141466 142.211217,1.42108547e-14 147.124464,1.42108547e-14 Z M147.124464,14.1938259 C150.945879,14.1938259 152.31067,10.9183276 152.31067,7.91578751 C152.31067,4.91324742 150.672921,1.63774914 147.124464,1.63774914 C143.30305,1.63774914 141.938259,4.91324742 141.938259,7.91578751 C141.938259,10.9183276 143.30305,14.1938259 147.124464,14.1938259 Z" id="Shape"></path>
                            <path d="M169.507036,10.099453 C169.507036,13.9208677 167.323371,16.1045332 163.501956,16.1045332 C159.680541,16.1045332 157.223917,14.1938259 157.223917,10.099453 L157.223917,0.27295819 L159.134625,0.27295819 L159.134625,10.099453 C159.134625,12.8290349 160.772374,14.1938259 163.228998,14.1938259 C165.685621,14.1938259 167.323371,12.8290349 167.323371,10.099453 L167.323371,0.27295819 L169.507036,0.27295819 L169.507036,10.099453 Z" id="Path"></path>
                            <path d="M173.055493,0.27295819 L180.425364,0.27295819 C183.154946,0.27295819 185.065653,1.91070733 185.065653,4.36733104 C185.065653,6.27803837 184.246778,7.64282932 182.336071,8.1887457 L182.336071,8.1887457 C184.246778,8.46170389 184.519737,9.82649484 184.519737,11.464244 C184.519737,12.8290349 184.519737,14.7397423 185.338611,15.5586168 L183.154946,15.5586168 C182.609029,15.0127005 182.881987,13.3749513 182.609029,11.7372022 C182.336071,10.3724112 182.063113,9.00762027 180.152405,9.00762027 L175.239158,9.00762027 L175.239158,15.5586168 L173.328451,15.5586168 L173.328451,0.27295819 L173.055493,0.27295819 Z M179.333531,7.36987113 C181.244238,7.36987113 182.881987,6.82395475 182.881987,4.64028923 C182.881987,3.27549828 182.063113,1.91070733 180.152405,1.91070733 L175.239158,1.91070733 L175.239158,7.09691294 L179.333531,7.09691294 L179.333531,7.36987113 Z" id="Shape"></path>
                            <path d="M199.532437,13.6479095 C198.440604,15.2856586 196.529897,15.831575 194.61919,15.831575 C189.9789,15.831575 187.249318,12.0101604 187.249318,8.1887457 C187.249318,3.82141466 189.705942,1.42108547e-14 194.61919,1.42108547e-14 C197.894688,1.42108547e-14 200.62427,1.36479095 201.170186,5.18620561 L199.259479,5.18620561 C198.986521,3.00254009 197.075813,1.91070733 194.61919,1.91070733 C190.797775,1.91070733 189.432984,5.18620561 189.432984,8.46170389 C189.432984,11.7372022 191.343691,14.4667841 194.61919,14.4667841 C197.894688,14.4667841 199.532437,12.2831186 199.532437,9.55353665 L194.61919,9.55353665 L194.61919,7.91578751 L201.170186,7.91578751 L201.170186,15.831575 L199.805395,15.831575 L199.532437,13.6479095 Z" id="Path"></path>
                            <path d="M9.82649484,35.2116065 C9.55353665,33.027941 8.1887457,32.2090664 6.00508018,32.2090664 C4.36733104,32.2090664 2.45662371,32.7549828 2.45662371,34.9386483 C2.45662371,36.8493557 4.91324742,37.1223139 7.36987113,37.6682302 C9.82649484,38.2141466 12.2831186,39.0330212 12.2831186,42.0355613 C12.2831186,45.3110596 9.00762027,46.6758505 6.27803837,46.6758505 C2.7295819,46.6758505 4.84871148e-15,45.0381014 4.84871148e-15,41.2166867 L1.91070733,41.2166867 C1.91070733,43.6733104 4.09437285,44.7651432 6.27803837,44.7651432 C8.1887457,44.7651432 10.099453,44.2192268 10.099453,42.0355613 C10.099453,39.8518958 7.64282932,39.5789376 5.18620561,39.0330212 C2.7295819,38.4871048 0.27295819,37.6682302 0.27295819,34.9386483 C0.27295819,31.9361082 3.00254009,30.5713173 5.73212199,30.5713173 C8.73466208,30.5713173 11.1912858,31.9361082 11.464244,35.4845647 L9.82649484,35.4845647 L9.82649484,35.2116065 Z" id="Path"></path>
                            <polygon id="Path" points="18.0152405 32.4820246 12.8290349 32.4820246 12.8290349 30.8442755 25.1121535 30.8442755 25.1121535 32.4820246 19.9259479 32.4820246 19.9259479 46.1299341 18.0152405 46.1299341"></polygon>
                            <path d="M29.4794845,30.8442755 L31.6631501,30.8442755 L37.6682302,46.1299341 L35.4845647,46.1299341 L33.8468156,41.4896449 L27.295819,41.4896449 L25.6580699,46.1299341 L23.4744043,46.1299341 L29.4794845,30.8442755 Z M27.8417354,39.8518958 L33.027941,39.8518958 L30.5713173,32.7549828 L30.5713173,32.7549828 L27.8417354,39.8518958 Z" id="Shape"></path>
                            <path d="M43.6733104,30.8442755 L45.8569759,30.8442755 L51.8620561,46.1299341 L49.6783906,46.1299341 L48.0406415,41.4896449 L41.4896449,41.4896449 L39.8518958,46.1299341 L37.6682302,46.1299341 L43.6733104,30.8442755 Z M42.0355613,39.8518958 L47.2217669,39.8518958 L44.7651432,32.7549828 L44.7651432,32.7549828 L42.0355613,39.8518958 Z" id="Shape"></path>
                            <polygon id="Path" points="55.4105126 32.4820246 50.224307 32.4820246 50.224307 30.8442755 62.5074255 30.8442755 62.5074255 32.4820246 57.3212199 32.4820246 57.3212199 46.1299341 55.4105126 46.1299341 55.4105126 32.4820246"></polygon>
                            <polygon id="Path" points="70.9691294 30.8442755 81.0685825 30.8442755 81.0685825 32.4820246 73.1527949 32.4820246 73.1527949 37.395272 80.2497079 37.395272 80.2497079 39.0330212 73.1527949 39.0330212 73.1527949 46.1299341 71.2420876 46.1299341 71.2420876 30.8442755"></polygon>
                            <path d="M83.5252062,30.8442755 L90.6221191,30.8442755 C93.351701,30.8442755 95.2624083,32.4820246 95.2624083,34.9386483 C95.2624083,36.8493557 94.4435338,38.2141466 92.5328264,38.760063 L92.5328264,38.760063 C94.1705756,39.0330212 94.716492,40.3978121 94.716492,42.0355613 C94.716492,43.4003522 94.716492,45.3110596 95.5353665,46.1299341 L93.351701,46.1299341 C92.8057846,45.5840177 93.0787428,43.9462686 92.8057846,42.3085195 C92.5328264,40.9437285 92.2598683,39.5789376 90.3491609,39.5789376 L85.4359135,39.5789376 L85.4359135,46.1299341 L83.5252062,46.1299341 L83.5252062,30.8442755 Z M89.8032445,37.9411884 C91.7139519,37.9411884 93.351701,37.395272 93.351701,35.2116065 C93.351701,33.8468156 92.5328264,32.4820246 90.6221191,32.4820246 L85.7088717,32.4820246 L85.7088717,37.6682302 L89.8032445,37.6682302 L89.8032445,37.9411884 Z" id="Shape"></path>
                            <polygon id="Path" points="98.5379066 30.8442755 109.183276 30.8442755 109.183276 32.4820246 100.721572 32.4820246 100.721572 37.395272 108.63736 37.395272 108.63736 39.0330212 100.721572 39.0330212 100.721572 44.2192268 109.183276 44.2192268 109.183276 45.8569759 98.5379066 45.8569759"></polygon>
                            <polygon id="Path" points="112.185816 30.8442755 114.096523 30.8442755 114.096523 46.1299341 112.185816 46.1299341"></polygon>
                            <path d="M117.917938,30.8442755 L123.377102,30.8442755 C124.741893,30.8442755 126.379642,30.8442755 127.471475,31.3901919 C128.563308,31.9361082 129.382182,33.027941 129.382182,34.6656901 C129.382182,36.3034393 128.563308,37.395272 127.198517,38.2141466 L127.198517,38.2141466 C129.109224,38.4871048 130.201057,40.1248539 130.201057,41.7626031 C130.201057,43.9462686 128.563308,46.1299341 125.560767,46.1299341 L118.190896,46.1299341 L118.190896,30.8442755 L117.917938,30.8442755 Z M120.101604,37.395272 L124.195976,37.395272 C126.379642,37.395272 127.471475,36.5763975 127.471475,34.9386483 C127.471475,32.7549828 126.106684,32.4820246 124.195976,32.4820246 L120.101604,32.4820246 L120.101604,37.395272 Z M120.101604,44.492185 L125.287809,44.492185 C126.925558,44.492185 128.017391,43.4003522 128.017391,41.7626031 C128.017391,39.8518958 126.379642,39.3059794 124.741893,39.3059794 L120.101604,39.3059794 L120.101604,44.492185 L120.101604,44.492185 Z" id="Shape"></path>
                            <path d="M145.213757,40.6707703 C145.213757,44.492185 143.030092,46.6758505 139.208677,46.6758505 C135.387262,46.6758505 132.930639,44.7651432 132.930639,40.6707703 L132.930639,30.8442755 L134.841346,30.8442755 L134.841346,40.6707703 C134.841346,43.4003522 136.479095,44.7651432 138.935719,44.7651432 C141.392342,44.7651432 143.030092,43.4003522 143.030092,40.6707703 L143.030092,30.8442755 L144.940799,30.8442755 L144.940799,40.6707703 L145.213757,40.6707703 Z" id="Path"></path>
                            <path d="M148.762214,30.8442755 L155.859127,30.8442755 C158.588708,30.8442755 160.499416,32.4820246 160.499416,34.9386483 C160.499416,36.8493557 159.680541,38.2141466 157.769834,38.760063 L157.769834,38.760063 C159.407583,39.0330212 159.953499,40.3978121 159.953499,42.0355613 C159.953499,43.4003522 159.953499,45.3110596 160.772374,46.1299341 L158.588708,46.1299341 C158.042792,45.5840177 158.31575,43.9462686 158.042792,42.3085195 C157.769834,40.9437285 157.496876,39.5789376 155.586168,39.5789376 L150.672921,39.5789376 L150.672921,46.1299341 L148.762214,46.1299341 L148.762214,30.8442755 Z M155.040252,37.9411884 C156.950959,37.9411884 158.588708,37.395272 158.588708,35.2116065 C158.588708,33.8468156 157.769834,32.4820246 155.859127,32.4820246 L150.945879,32.4820246 L150.945879,37.6682302 L155.040252,37.6682302 L155.040252,37.9411884 Z" id="Shape"></path>
                            <path d="M175.239158,44.2192268 C174.147325,45.8569759 172.236618,46.4028923 170.325911,46.4028923 C165.685621,46.4028923 162.956039,42.5814777 162.956039,38.760063 C162.956039,34.392732 165.412663,30.5713173 170.325911,30.5713173 C173.601409,30.5713173 176.330991,31.9361082 176.876907,35.7575229 L174.9662,35.7575229 C174.693242,33.5738574 172.782534,32.4820246 170.325911,32.4820246 C166.504496,32.4820246 165.139705,35.7575229 165.139705,39.0330212 C165.139705,42.3085195 167.050412,45.0381014 170.325911,45.0381014 C173.601409,45.0381014 175.239158,42.8544358 175.239158,40.1248539 L170.325911,40.1248539 L170.325911,38.4871048 L176.876907,38.4871048 L176.876907,46.4028923 L175.512116,46.4028923 L175.239158,44.2192268 Z" id="Path"></path>
                            <polygon id="Path" points="10.6453694 76.7012514 9.28057846 76.7012514 6.82395475 67.9665893 6.82395475 67.9665893 4.36733104 76.7012514 3.00254009 76.7012514 0.27295819 66.3288402 1.63774914 66.3288402 3.82141466 74.7905441 3.82141466 74.7905441 6.27803837 66.055882 7.91578751 66.055882 9.82649484 74.7905441 9.82649484 74.7905441 12.0101604 66.055882 13.3749513 66.055882"></polygon>
                            <polygon id="Path" points="24.5662371 76.7012514 23.2014462 76.7012514 20.7448224 67.9665893 20.7448224 67.9665893 18.2881987 76.7012514 16.9234078 76.7012514 14.1938259 66.3288402 15.5586168 66.3288402 17.7422824 74.7905441 17.7422824 74.7905441 20.1989061 66.055882 21.8366552 66.055882 23.7473625 74.7905441 23.7473625 74.7905441 25.9310281 66.055882 27.295819 66.055882"></polygon>
                            <polygon id="Path" points="38.4871048 76.7012514 37.1223139 76.7012514 34.6656901 67.9665893 34.6656901 67.9665893 32.2090664 76.7012514 30.8442755 76.7012514 28.1146936 66.3288402 29.4794845 66.3288402 31.6631501 75.0635023 31.6631501 75.0635023 34.1197738 66.3288402 35.7575229 66.3288402 37.9411884 75.0635023 37.9411884 75.0635023 40.1248539 66.3288402 41.2166867 66.3288402"></polygon>
                            <polygon id="Path" points="41.7626031 75.0635023 43.4003522 75.0635023 43.4003522 76.7012514 41.7626031 76.7012514"></polygon>
                            <polygon id="Path" points="46.1299341 66.055882 52.9538889 66.055882 52.9538889 67.1477148 47.4947251 67.1477148 47.4947251 70.423213 52.4079725 70.423213 52.4079725 71.5150458 47.4947251 71.5150458 47.4947251 76.4282932 46.1299341 76.4282932"></polygon>
                            <path d="M54.8645962,66.055882 L59.7778436,66.055882 C61.688551,66.055882 63.0533419,67.1477148 63.0533419,68.7854639 C63.0533419,70.1502549 62.5074255,70.9691294 61.1426346,71.5150458 L61.1426346,71.5150458 C62.2344673,71.788004 62.5074255,72.6068786 62.7803837,73.6987113 C62.7803837,74.7905441 62.7803837,75.8823768 63.3263001,76.7012514 L61.688551,76.7012514 C61.4155928,76.155335 61.4155928,75.0635023 61.4155928,74.2446277 C61.1426346,73.1527949 61.1426346,72.3339204 59.7778436,72.3339204 L56.5023454,72.3339204 L56.5023454,76.7012514 L54.8645962,76.7012514 L54.8645962,66.055882 Z M59.2319273,70.9691294 C60.5967182,70.9691294 61.688551,70.6961712 61.688551,69.0584221 C61.688551,67.9665893 61.1426346,67.1477148 59.7778436,67.1477148 L56.2293872,67.1477148 L56.2293872,70.6961712 L59.2319273,70.6961712 L59.2319273,70.9691294 Z" id="Shape"></path>
                            <polygon id="Path" points="65.2370074 75.0635023 66.8747566 75.0635023 66.8747566 76.7012514 65.2370074 76.7012514"></polygon>
                            <path d="M76.9742096,69.3313803 C76.7012514,67.9665893 75.6094187,67.1477148 73.9716695,67.1477148 C71.5150458,67.1477148 70.423213,69.3313803 70.423213,71.5150458 C70.423213,73.9716695 71.5150458,75.8823768 73.9716695,75.8823768 C75.8823768,75.8823768 76.9742096,74.5175859 76.9742096,72.8798368 L78.3390006,72.8798368 C78.0660424,75.6094187 76.4282932,76.9742096 73.6987113,76.9742096 C70.423213,76.9742096 68.7854639,74.5175859 68.7854639,71.5150458 C68.7854639,68.5125057 70.423213,66.055882 73.6987113,66.055882 C75.8823768,66.055882 77.7930842,67.1477148 78.0660424,69.3313803 L76.9742096,69.3313803 Z" id="Path"></path>
                            <polygon id="Path" points="80.5226661 66.055882 81.887457 66.055882 81.887457 70.423213 87.3466208 70.423213 87.3466208 66.055882 88.7114118 66.055882 88.7114118 76.4282932 87.3466208 76.4282932 87.3466208 71.5150458 81.887457 71.5150458 81.887457 76.4282932 80.5226661 76.4282932"></polygon>
                        </g>
                    </g>
                </g>
            </g>
        </g>
    </g>
</svg>