<?xml version="1.0" encoding="UTF-8"?>
<svg width="314.785429px" height="110px" viewBox="0 0 314.785429 110" version="1.1" xmlns="http://www.w3.org/2000/svg" xmlns:xlink="http://www.w3.org/1999/xlink">
    <title>logos/fri-son</title>
    <g id="Page-1" stroke="none" stroke-width="1" fill="none" fill-rule="evenodd" opacity="0.5">
        <g id="acceuil" transform="translate(-259, -9483)" fill="#FFFFFF" fill-rule="nonzero">
            <g id="footer" transform="translate(19, 9261)">
                <g id="partenariat" transform="translate(0, 133)">
                    <g id="logos/fri-son" transform="translate(240, 89)">
                        <g id="Group">
                            <path d="M213.838429,42.8874286 C199.221,42.8874286 186.901,52.2845714 182.310857,65.3132857 C179.886143,58.4901429 175.358857,52.6491429 169.475429,48.6545714 C164.641714,45.3624286 161.440714,39.8687143 161.440714,33.6285714 C161.440714,23.727 169.593286,15.6482857 179.567143,15.6482857 L179.567143,0.147714286 C161.087143,0.147714286 145.965286,15.0605714 145.965286,33.6301429 C145.965286,45.1864286 151.811,55.3975714 160.683286,61.4522857 L160.683286,61.4758571 C165.545286,64.7334286 168.743143,70.2648571 168.743143,76.5222857 C168.743143,86.4081429 160.590571,94.4978571 150.621429,94.4978571 C140.702571,94.4978571 132.644286,86.4081429 132.644286,76.5222857 L117.139,76.5222857 C117.137429,94.9378571 132.194857,110 150.618286,110 C165.218429,110 177.689286,100.668857 182.307714,87.6102857 C186.913571,100.617 199.326286,110 213.838429,110 C232.340429,110 247.465429,95.084 247.465429,76.5175714 C247.467,57.9542857 232.397,42.8874286 213.838429,42.8874286 M213.838429,94.4962857 C203.947857,94.4962857 195.864429,86.405 195.864429,76.5191429 C195.864429,66.5437143 203.951,58.3958571 213.838429,58.3958571 C223.812286,58.3958571 231.960143,66.5484286 231.960143,76.5191429 C231.960143,86.4034286 223.812286,94.4962857 213.838429,94.4962857" id="Shape"></path>
                            <path d="M299.074286,108.500857 L314.785429,108.500857 L314.785429,76.5175714 C314.785429,57.9542857 299.519,42.8842857 281.100286,42.8842857 C262.529143,42.8842857 247.465429,57.9542857 247.465429,76.5175714 L247.465429,108.535429 L262.977,108.535429 L262.977,76.5175714 C262.977,66.6317143 271.126429,58.3942857 281.100286,58.3942857 C290.984571,58.3942857 299.074286,66.6317143 299.074286,76.5175714 L299.074286,108.500857 L299.074286,108.500857 Z" id="Path"></path>
                            <path d="M90.6824286,41.4637143 L90.6824286,41.4637143 C80.3754286,41.4637143 71.1228571,46.2031429 64.966,53.5935714 C58.8138571,46.2015714 49.5314286,41.4637143 39.2228571,41.4637143 L35.057,41.4637143 L35.057,33.4824286 C35.057,23.5965714 43.2064286,15.51 53.1818571,15.51 L53.1818571,0 C34.7018571,0 19.5501429,14.9222857 19.5501429,33.4824286 L19.5501429,41.4637143 L0,41.4637143 L0,56.969 L19.5501429,56.969 L19.5501429,108.623429 L35.057,108.623429 L35.057,56.969 L39.2228571,56.969 C49.137,56.969 57.1968571,65.0335714 57.1968571,74.9461429 L57.1968571,108.551143 L72.7084286,108.551143 L72.7084286,74.9461429 C72.7084286,65.032 80.7965714,56.969 90.6824286,56.969 L94.8545714,56.969 L94.8545714,108.551143 L110.356714,108.551143 L110.356714,41.4637143 L90.6824286,41.4637143 Z" id="Path"></path>
                            <polygon id="Path" points="141.744429 41.4637143 117.066714 56.969 117.066714 72.864 141.744429 57.7468571"></polygon>
                        </g>
                        <rect id="Rectangle" x="94.8498571" y="0.154" width="15.5021429" height="37.136"></rect>
                    </g>
                </g>
            </g>
        </g>
    </g>
</svg>